<svg xmlns="http://www.w3.org/2000/svg" xmlns:xlink="http://www.w3.org/1999/xlink" width="400" zoomAndPan="magnify" viewBox="0 0 300 60" height="80" preserveAspectRatio="xMidYMid meet" version="1.0"><defs><g/></defs><rect x="-30" width="360" fill="#ffffff" y="-6" height="72" fill-opacity="1"/><rect x="-30" width="360" fill="#4a4a4a" y="-6" height="72" fill-opacity="1"/><g fill="#ffffff" fill-opacity="1"><g transform="translate(9.270194, 50.378703)"><g><path d="M 48.0625 -39.953125 C 50.257812 -39.953125 51.359375 -39.054688 51.359375 -37.265625 C 51.359375 -36.703125 51.238281 -36 51 -35.15625 L 49.5625 -30.296875 C 49.125 -28.816406 48.582031 -27.773438 47.9375 -27.171875 C 47.300781 -26.578125 46.382812 -26.28125 45.1875 -26.28125 C 44.1875 -26.28125 43.414062 -26.539062 42.875 -27.0625 C 42.332031 -27.582031 41.820312 -28.398438 41.34375 -29.515625 L 40.3125 -31.984375 C 40 -32.742188 39.660156 -33.257812 39.296875 -33.53125 C 38.941406 -33.8125 38.382812 -33.953125 37.625 -33.953125 L 36.234375 -33.953125 L 28.625 -7.140625 C 28.5 -6.617188 28.4375 -6.160156 28.4375 -5.765625 C 28.4375 -5.285156 28.503906 -4.882812 28.640625 -4.5625 C 28.785156 -4.238281 29 -3.898438 29.28125 -3.546875 C 29.632812 -2.984375 29.8125 -2.519531 29.8125 -2.15625 C 29.8125 -2.082031 29.773438 -1.882812 29.703125 -1.5625 C 29.503906 -1.039062 29.113281 -0.660156 28.53125 -0.421875 C 27.945312 -0.179688 27.117188 -0.0625 26.046875 -0.0625 L 11.9375 -0.0625 C 11.101562 -0.0625 10.453125 -0.203125 9.984375 -0.484375 C 9.523438 -0.765625 9.296875 -1.164062 9.296875 -1.6875 C 9.296875 -1.925781 9.359375 -2.164062 9.484375 -2.40625 C 9.640625 -2.757812 9.828125 -3.023438 10.046875 -3.203125 C 10.265625 -3.390625 10.597656 -3.625 11.046875 -3.90625 C 11.640625 -4.257812 12.132812 -4.65625 12.53125 -5.09375 C 12.9375 -5.539062 13.28125 -6.222656 13.5625 -7.140625 L 21.125 -33.953125 L 19.734375 -33.953125 C 18.859375 -33.953125 18.140625 -33.8125 17.578125 -33.53125 C 17.015625 -33.257812 16.414062 -32.742188 15.78125 -31.984375 L 13.796875 -29.515625 C 12.878906 -28.441406 11.988281 -27.632812 11.125 -27.09375 C 10.269531 -26.550781 9.34375 -26.28125 8.34375 -26.28125 C 7.414062 -26.28125 6.691406 -26.519531 6.171875 -27 C 5.660156 -27.476562 5.40625 -28.140625 5.40625 -28.984375 C 5.40625 -29.378906 5.460938 -29.816406 5.578125 -30.296875 L 7.140625 -35.765625 C 7.460938 -36.878906 7.820312 -37.726562 8.21875 -38.3125 C 8.613281 -38.894531 9.179688 -39.3125 9.921875 -39.5625 C 10.671875 -39.820312 11.722656 -39.953125 13.078125 -39.953125 Z M 48.0625 -39.953125 "/></g></g></g><g fill="#ffffff" fill-opacity="1"><g transform="translate(54.810147, 50.378703)"><g><path d="M 20.34375 -32.046875 C 25.414062 -32.046875 29.09375 -31.234375 31.375 -29.609375 C 33.65625 -27.992188 34.796875 -25.925781 34.796875 -23.40625 C 34.796875 -22.644531 34.71875 -21.941406 34.5625 -21.296875 C 33.957031 -18.660156 32.285156 -16.769531 29.546875 -15.625 C 26.804688 -14.488281 23.578125 -13.921875 19.859375 -13.921875 C 17.984375 -13.921875 16.222656 -14.039062 14.578125 -14.28125 C 14.535156 -12.195312 15.09375 -10.734375 16.25 -9.890625 C 17.414062 -9.054688 19.039062 -8.640625 21.125 -8.640625 C 22.082031 -8.640625 23 -8.75 23.875 -8.96875 C 24.757812 -9.1875 25.878906 -9.515625 27.234375 -9.953125 C 28.359375 -10.359375 29.117188 -10.5625 29.515625 -10.5625 C 29.960938 -10.5625 30.1875 -10.300781 30.1875 -9.78125 C 30.21875 -8.382812 29.691406 -6.914062 28.609375 -5.375 C 27.535156 -3.832031 25.9375 -2.519531 23.8125 -1.4375 C 21.695312 -0.351562 19.140625 0.1875 16.140625 0.1875 C 11.703125 0.1875 8.0625 -0.929688 5.21875 -3.171875 C 2.375 -5.421875 0.953125 -8.679688 0.953125 -12.953125 C 0.953125 -14.160156 1.113281 -15.5625 1.4375 -17.15625 C 2.4375 -22.082031 4.625 -25.796875 8 -28.296875 C 11.382812 -30.796875 15.5 -32.046875 20.34375 -32.046875 Z M 15 -17.875 C 15.15625 -17.832031 15.375 -17.8125 15.65625 -17.8125 C 17.34375 -17.8125 18.625 -18.59375 19.5 -20.15625 C 20.375 -21.71875 20.796875 -23.457031 20.765625 -25.375 C 20.722656 -26.5 20.398438 -27.0625 19.796875 -27.0625 C 19.359375 -27.0625 18.835938 -26.707031 18.234375 -26 C 17.640625 -25.300781 17.050781 -24.253906 16.46875 -22.859375 C 15.882812 -21.460938 15.394531 -19.800781 15 -17.875 Z M 15 -17.875 "/></g></g></g><g fill="#ffffff" fill-opacity="1"><g transform="translate(88.410114, 50.378703)"><g><path d="M 19.734375 -32.28125 C 23.054688 -32.28125 25.925781 -31.976562 28.34375 -31.375 C 30.769531 -30.78125 32.628906 -29.941406 33.921875 -28.859375 C 35.222656 -27.773438 35.875 -26.554688 35.875 -25.203125 C 35.875 -23.796875 35.320312 -22.648438 34.21875 -21.765625 C 33.125 -20.890625 31.597656 -20.453125 29.640625 -20.453125 C 27.640625 -20.453125 25.945312 -20.953125 24.5625 -21.953125 C 23.1875 -22.953125 22.5 -24.210938 22.5 -25.734375 C 22.5 -26.253906 22.578125 -26.753906 22.734375 -27.234375 C 22.015625 -27.441406 21.375 -27.546875 20.8125 -27.546875 C 19.8125 -27.546875 18.984375 -27.300781 18.328125 -26.8125 C 17.671875 -26.332031 17.363281 -25.65625 17.40625 -24.78125 C 17.40625 -23.738281 17.921875 -22.859375 18.953125 -22.140625 C 19.992188 -21.421875 21.675781 -20.519531 24 -19.4375 C 26 -18.5625 27.648438 -17.753906 28.953125 -17.015625 C 30.253906 -16.273438 31.351562 -15.34375 32.25 -14.21875 C 33.144531 -13.101562 33.59375 -11.785156 33.59375 -10.265625 C 33.59375 -9.941406 33.515625 -9.335938 33.359375 -8.453125 C 32.722656 -5.773438 30.941406 -3.65625 28.015625 -2.09375 C 25.097656 -0.539062 21.257812 0.234375 16.5 0.234375 C 11.132812 0.234375 6.882812 -0.484375 3.75 -1.921875 C 0.613281 -3.359375 -0.953125 -5.335938 -0.953125 -7.859375 C -0.953125 -9.578125 -0.4375 -10.875 0.59375 -11.75 C 1.632812 -12.632812 3.015625 -13.078125 4.734375 -13.078125 C 6.734375 -13.078125 8.441406 -12.457031 9.859375 -11.21875 C 11.285156 -9.976562 12 -8.398438 12 -6.484375 C 12 -5.960938 11.9375 -5.421875 11.8125 -4.859375 C 12.78125 -4.617188 13.703125 -4.5 14.578125 -4.5 C 15.617188 -4.5 16.476562 -4.78125 17.15625 -5.34375 C 17.84375 -5.90625 18.1875 -6.6875 18.1875 -7.6875 C 18.144531 -8.601562 17.679688 -9.390625 16.796875 -10.046875 C 15.921875 -10.710938 14.519531 -11.503906 12.59375 -12.421875 C 10.800781 -13.265625 9.320312 -14.054688 8.15625 -14.796875 C 7 -15.535156 6.007812 -16.460938 5.1875 -17.578125 C 4.363281 -18.703125 3.953125 -20.023438 3.953125 -21.546875 C 3.953125 -24.816406 5.320312 -27.421875 8.0625 -29.359375 C 10.8125 -31.304688 14.703125 -32.28125 19.734375 -32.28125 Z M 19.734375 -32.28125 "/></g></g></g><g fill="#ffffff" fill-opacity="1"><g transform="translate(123.99008, 50.378703)"><g><path d="M 19.734375 -32.28125 C 23.054688 -32.28125 25.925781 -31.976562 28.34375 -31.375 C 30.769531 -30.78125 32.628906 -29.941406 33.921875 -28.859375 C 35.222656 -27.773438 35.875 -26.554688 35.875 -25.203125 C 35.875 -23.796875 35.320312 -22.648438 34.21875 -21.765625 C 33.125 -20.890625 31.597656 -20.453125 29.640625 -20.453125 C 27.640625 -20.453125 25.945312 -20.953125 24.5625 -21.953125 C 23.1875 -22.953125 22.5 -24.210938 22.5 -25.734375 C 22.5 -26.253906 22.578125 -26.753906 22.734375 -27.234375 C 22.015625 -27.441406 21.375 -27.546875 20.8125 -27.546875 C 19.8125 -27.546875 18.984375 -27.300781 18.328125 -26.8125 C 17.671875 -26.332031 17.363281 -25.65625 17.40625 -24.78125 C 17.40625 -23.738281 17.921875 -22.859375 18.953125 -22.140625 C 19.992188 -21.421875 21.675781 -20.519531 24 -19.4375 C 26 -18.5625 27.648438 -17.753906 28.953125 -17.015625 C 30.253906 -16.273438 31.351562 -15.34375 32.25 -14.21875 C 33.144531 -13.101562 33.59375 -11.785156 33.59375 -10.265625 C 33.59375 -9.941406 33.515625 -9.335938 33.359375 -8.453125 C 32.722656 -5.773438 30.941406 -3.65625 28.015625 -2.09375 C 25.097656 -0.539062 21.257812 0.234375 16.5 0.234375 C 11.132812 0.234375 6.882812 -0.484375 3.75 -1.921875 C 0.613281 -3.359375 -0.953125 -5.335938 -0.953125 -7.859375 C -0.953125 -9.578125 -0.4375 -10.875 0.59375 -11.75 C 1.632812 -12.632812 3.015625 -13.078125 4.734375 -13.078125 C 6.734375 -13.078125 8.441406 -12.457031 9.859375 -11.21875 C 11.285156 -9.976562 12 -8.398438 12 -6.484375 C 12 -5.960938 11.9375 -5.421875 11.8125 -4.859375 C 12.78125 -4.617188 13.703125 -4.5 14.578125 -4.5 C 15.617188 -4.5 16.476562 -4.78125 17.15625 -5.34375 C 17.84375 -5.90625 18.1875 -6.6875 18.1875 -7.6875 C 18.144531 -8.601562 17.679688 -9.390625 16.796875 -10.046875 C 15.921875 -10.710938 14.519531 -11.503906 12.59375 -12.421875 C 10.800781 -13.265625 9.320312 -14.054688 8.15625 -14.796875 C 7 -15.535156 6.007812 -16.460938 5.1875 -17.578125 C 4.363281 -18.703125 3.953125 -20.023438 3.953125 -21.546875 C 3.953125 -24.816406 5.320312 -27.421875 8.0625 -29.359375 C 10.8125 -31.304688 14.703125 -32.28125 19.734375 -32.28125 Z M 19.734375 -32.28125 "/></g></g></g><g fill="#ffffff" fill-opacity="1"><g transform="translate(159.570046, 50.378703)"><g><path d="M 21.421875 -31.734375 C 26.015625 -31.734375 29.691406 -30.882812 32.453125 -29.1875 C 35.210938 -27.488281 36.59375 -24.898438 36.59375 -21.421875 C 36.59375 -20.097656 36.351562 -18.597656 35.875 -16.921875 L 33.421875 -8.640625 C 33.378906 -8.484375 33.359375 -8.285156 33.359375 -8.046875 C 33.359375 -7.398438 33.617188 -7.078125 34.140625 -7.078125 C 34.617188 -7.078125 35.023438 -7.285156 35.359375 -7.703125 C 35.703125 -8.128906 35.9375 -8.34375 36.0625 -8.34375 C 36.257812 -8.34375 36.425781 -8.203125 36.5625 -7.921875 C 36.707031 -7.640625 36.78125 -7.316406 36.78125 -6.953125 C 36.820312 -5.878906 36.410156 -4.78125 35.546875 -3.65625 C 34.691406 -2.539062 33.539062 -1.617188 32.09375 -0.890625 C 30.65625 -0.171875 29.078125 0.1875 27.359375 0.1875 C 25.273438 0.1875 23.492188 -0.191406 22.015625 -0.953125 C 20.535156 -1.710938 19.515625 -2.832031 18.953125 -4.3125 C 17.753906 -2.875 16.332031 -1.765625 14.6875 -0.984375 C 13.050781 -0.203125 11.296875 0.1875 9.421875 0.1875 C 7.296875 0.1875 5.515625 -0.222656 4.078125 -1.046875 C 2.640625 -1.867188 1.566406 -2.929688 0.859375 -4.234375 C 0.160156 -5.535156 -0.1875 -6.90625 -0.1875 -8.34375 C -0.1875 -8.976562 -0.125 -9.597656 0 -10.203125 C 0.632812 -12.960938 2.019531 -15.039062 4.15625 -16.4375 C 6.300781 -17.84375 8.851562 -18.546875 11.8125 -18.546875 C 15.132812 -18.546875 18.394531 -18.023438 21.59375 -16.984375 L 23.09375 -20.9375 C 23.613281 -22.613281 23.875 -23.914062 23.875 -24.84375 C 23.832031 -25.800781 23.507812 -26.519531 22.90625 -27 C 22.3125 -27.476562 21.394531 -27.71875 20.15625 -27.71875 C 20.394531 -27.082031 20.515625 -26.421875 20.515625 -25.734375 C 20.515625 -24.253906 19.953125 -22.972656 18.828125 -21.890625 C 17.710938 -20.816406 16.117188 -20.28125 14.046875 -20.28125 C 12.078125 -20.28125 10.539062 -20.707031 9.4375 -21.5625 C 8.34375 -22.425781 7.796875 -23.5 7.796875 -24.78125 C 7.796875 -26.78125 8.914062 -28.4375 11.15625 -29.75 C 13.394531 -31.070312 16.816406 -31.734375 21.421875 -31.734375 Z M 18.0625 -13.5625 C 16.9375 -13.5625 16.023438 -13.128906 15.328125 -12.265625 C 14.628906 -11.410156 14.28125 -10.484375 14.28125 -9.484375 C 14.28125 -8.835938 14.429688 -8.3125 14.734375 -7.90625 C 15.035156 -7.507812 15.460938 -7.3125 16.015625 -7.3125 C 16.535156 -7.3125 17.101562 -7.519531 17.71875 -7.9375 C 18.34375 -8.363281 18.796875 -9 19.078125 -9.84375 L 20.34375 -13.375 C 19.65625 -13.5 18.894531 -13.5625 18.0625 -13.5625 Z M 18.0625 -13.5625 "/></g></g></g><g fill="#ffffff" fill-opacity="1"><g transform="translate(198.810004, 50.378703)"><g><path d="M 29.453125 -31.734375 C 31.691406 -31.734375 33.484375 -31.050781 34.828125 -29.6875 C 36.171875 -28.332031 36.84375 -26.65625 36.84375 -24.65625 C 36.84375 -23.894531 36.757812 -23.195312 36.59375 -22.5625 C 36.195312 -20.914062 35.4375 -19.648438 34.3125 -18.765625 C 33.195312 -17.890625 31.859375 -17.453125 30.296875 -17.453125 C 28.773438 -17.453125 27.625 -17.8125 26.84375 -18.53125 C 26.070312 -19.257812 25.382812 -20.222656 24.78125 -21.421875 C 24.457031 -22.097656 24.15625 -22.597656 23.875 -22.921875 C 23.59375 -23.242188 23.273438 -23.40625 22.921875 -23.40625 C 22.515625 -23.40625 22.160156 -23.242188 21.859375 -22.921875 C 21.566406 -22.597656 21.300781 -22.035156 21.0625 -21.234375 L 16.4375 -6.234375 C 16.351562 -6.035156 16.3125 -5.738281 16.3125 -5.34375 C 16.3125 -4.820312 16.460938 -4.390625 16.765625 -4.046875 C 17.066406 -3.710938 17.476562 -3.382812 18 -3.0625 C 18.476562 -2.738281 18.796875 -2.476562 18.953125 -2.28125 C 19.117188 -2.082031 19.179688 -1.820312 19.140625 -1.5 C 19.054688 -0.976562 18.765625 -0.597656 18.265625 -0.359375 C 17.765625 -0.117188 16.914062 0 15.71875 0 L 0.359375 0 C -0.679688 0 -1.429688 -0.164062 -1.890625 -0.5 C -2.347656 -0.84375 -2.519531 -1.296875 -2.40625 -1.859375 C -2.238281 -2.335938 -1.816406 -2.757812 -1.140625 -3.125 C -0.535156 -3.4375 -0.0351562 -3.8125 0.359375 -4.25 C 0.753906 -4.695312 1.09375 -5.398438 1.375 -6.359375 L 6.71875 -23.703125 C 6.800781 -23.898438 6.84375 -24.179688 6.84375 -24.546875 C 6.84375 -24.984375 6.75 -25.320312 6.5625 -25.5625 C 6.382812 -25.800781 6.097656 -26.097656 5.703125 -26.453125 C 5.296875 -26.773438 5.015625 -27.054688 4.859375 -27.296875 C 4.703125 -27.535156 4.679688 -27.859375 4.796875 -28.265625 C 5.035156 -29.179688 6.296875 -29.988281 8.578125 -30.6875 C 10.859375 -31.382812 13.238281 -31.734375 15.71875 -31.734375 C 17.363281 -31.734375 18.722656 -31.363281 19.796875 -30.625 C 20.878906 -29.882812 21.582031 -28.835938 21.90625 -27.484375 C 23.820312 -30.316406 26.335938 -31.734375 29.453125 -31.734375 Z M 29.453125 -31.734375 "/></g></g></g><g fill="#ffffff" fill-opacity="1"><g transform="translate(233.549985, 50.378703)"><g><path d="M 15.78125 -31.734375 C 18.101562 -31.734375 19.800781 -31.289062 20.875 -30.40625 C 21.957031 -29.53125 22.5 -28.332031 22.5 -26.8125 C 22.5 -25.894531 22.363281 -25.019531 22.09375 -24.1875 L 16.5625 -6.234375 C 16.445312 -5.753906 16.390625 -5.335938 16.390625 -4.984375 C 16.390625 -4.460938 16.488281 -4.050781 16.6875 -3.75 C 16.882812 -3.445312 17.164062 -3.15625 17.53125 -2.875 C 17.8125 -2.59375 18.007812 -2.363281 18.125 -2.1875 C 18.25 -2.007812 18.269531 -1.78125 18.1875 -1.5 C 17.988281 -0.976562 17.585938 -0.597656 16.984375 -0.359375 C 16.390625 -0.117188 15.472656 0 14.234375 0 L 0.546875 0 C -0.492188 0 -1.253906 -0.164062 -1.734375 -0.5 C -2.210938 -0.84375 -2.375 -1.296875 -2.21875 -1.859375 C -2.050781 -2.335938 -1.628906 -2.757812 -0.953125 -3.125 C -0.347656 -3.4375 0.148438 -3.8125 0.546875 -4.25 C 0.941406 -4.695312 1.28125 -5.398438 1.5625 -6.359375 L 6.78125 -23.703125 C 6.90625 -24.054688 6.96875 -24.351562 6.96875 -24.59375 C 6.96875 -25.039062 6.867188 -25.394531 6.671875 -25.65625 C 6.472656 -25.914062 6.171875 -26.179688 5.765625 -26.453125 C 5.367188 -26.773438 5.085938 -27.054688 4.921875 -27.296875 C 4.765625 -27.535156 4.75 -27.859375 4.875 -28.265625 C 5.113281 -29.179688 6.367188 -29.988281 8.640625 -30.6875 C 10.921875 -31.382812 13.300781 -31.734375 15.78125 -31.734375 Z M 19.8125 -45 C 21.375 -45 22.671875 -44.488281 23.703125 -43.46875 C 24.742188 -42.445312 25.265625 -41.195312 25.265625 -39.71875 C 25.265625 -38.675781 24.992188 -37.65625 24.453125 -36.65625 C 23.921875 -35.65625 23.164062 -34.84375 22.1875 -34.21875 C 21.207031 -33.601562 20.113281 -33.296875 18.90625 -33.296875 C 17.382812 -33.296875 16.113281 -33.804688 15.09375 -34.828125 C 14.082031 -35.847656 13.554688 -37.117188 13.515625 -38.640625 C 13.515625 -39.640625 13.773438 -40.628906 14.296875 -41.609375 C 14.816406 -42.585938 15.554688 -43.394531 16.515625 -44.03125 C 17.472656 -44.675781 18.570312 -45 19.8125 -45 Z M 19.8125 -45 "/></g></g></g><g fill="#ffffff" fill-opacity="1"><g transform="translate(255.50996, 50.378703)"><g><path d="M 19.734375 -32.28125 C 23.054688 -32.28125 25.925781 -31.976562 28.34375 -31.375 C 30.769531 -30.78125 32.628906 -29.941406 33.921875 -28.859375 C 35.222656 -27.773438 35.875 -26.554688 35.875 -25.203125 C 35.875 -23.796875 35.320312 -22.648438 34.21875 -21.765625 C 33.125 -20.890625 31.597656 -20.453125 29.640625 -20.453125 C 27.640625 -20.453125 25.945312 -20.953125 24.5625 -21.953125 C 23.1875 -22.953125 22.5 -24.210938 22.5 -25.734375 C 22.5 -26.253906 22.578125 -26.753906 22.734375 -27.234375 C 22.015625 -27.441406 21.375 -27.546875 20.8125 -27.546875 C 19.8125 -27.546875 18.984375 -27.300781 18.328125 -26.8125 C 17.671875 -26.332031 17.363281 -25.65625 17.40625 -24.78125 C 17.40625 -23.738281 17.921875 -22.859375 18.953125 -22.140625 C 19.992188 -21.421875 21.675781 -20.519531 24 -19.4375 C 26 -18.5625 27.648438 -17.753906 28.953125 -17.015625 C 30.253906 -16.273438 31.351562 -15.34375 32.25 -14.21875 C 33.144531 -13.101562 33.59375 -11.785156 33.59375 -10.265625 C 33.59375 -9.941406 33.515625 -9.335938 33.359375 -8.453125 C 32.722656 -5.773438 30.941406 -3.65625 28.015625 -2.09375 C 25.097656 -0.539062 21.257812 0.234375 16.5 0.234375 C 11.132812 0.234375 6.882812 -0.484375 3.75 -1.921875 C 0.613281 -3.359375 -0.953125 -5.335938 -0.953125 -7.859375 C -0.953125 -9.578125 -0.4375 -10.875 0.59375 -11.75 C 1.632812 -12.632812 3.015625 -13.078125 4.734375 -13.078125 C 6.734375 -13.078125 8.441406 -12.457031 9.859375 -11.21875 C 11.285156 -9.976562 12 -8.398438 12 -6.484375 C 12 -5.960938 11.9375 -5.421875 11.8125 -4.859375 C 12.78125 -4.617188 13.703125 -4.5 14.578125 -4.5 C 15.617188 -4.5 16.476562 -4.78125 17.15625 -5.34375 C 17.84375 -5.90625 18.1875 -6.6875 18.1875 -7.6875 C 18.144531 -8.601562 17.679688 -9.390625 16.796875 -10.046875 C 15.921875 -10.710938 14.519531 -11.503906 12.59375 -12.421875 C 10.800781 -13.265625 9.320312 -14.054688 8.15625 -14.796875 C 7 -15.535156 6.007812 -16.460938 5.1875 -17.578125 C 4.363281 -18.703125 3.953125 -20.023438 3.953125 -21.546875 C 3.953125 -24.816406 5.320312 -27.421875 8.0625 -29.359375 C 10.8125 -31.304688 14.703125 -32.28125 19.734375 -32.28125 Z M 19.734375 -32.28125 "/></g></g></g><g fill="#ffffff" fill-opacity="1"><g transform="translate(291.094405, 50.378703)"><g/></g></g></svg>