<svg xmlns="http://www.w3.org/2000/svg" xmlns:xlink="http://www.w3.org/1999/xlink" width="500" zoomAndPan="magnify" viewBox="0 0 375 112.499997" height="150" preserveAspectRatio="xMidYMid meet" version="1.2"><defs/><g id="afd0823f23"><g style="fill:#111827;fill-opacity:1;"><g transform="translate(9.193286, 75.388472)"><path style="stroke:none" d="M 25.4375 -49.746094 C 28.355469 -49.746094 31.070312 -49.390625 33.582031 -48.675781 C 36.074219 -47.96875 38.578125 -46.867188 41.101562 -45.375 L 39.042969 -41.898438 L 36.46875 -45.015625 L 38.035156 -46.304688 C 39.425781 -47.410156 40.625 -48.1875 41.632812 -48.640625 C 42.863281 -49.199219 44.222656 -49.476562 45.707031 -49.476562 C 47.695312 -49.476562 49.363281 -48.96875 50.71875 -47.953125 C 51.582031 -47.304688 52.234375 -46.5 52.679688 -45.53125 C 53.082031 -44.652344 53.285156 -43.691406 53.285156 -42.648438 C 53.285156 -41.847656 53.148438 -41.035156 52.875 -40.214844 L 49.042969 -41.492188 L 52.90625 -40.316406 L 50.050781 -30.929688 C 49.539062 -29.175781 48.78125 -27.820312 47.78125 -26.867188 C 46.523438 -25.671875 44.882812 -25.074219 42.851562 -25.074219 C 40.894531 -25.074219 39.167969 -25.683594 37.675781 -26.90625 C 36.726562 -27.679688 35.378906 -29.117188 33.628906 -31.21875 L 36.730469 -33.804688 L 33.691406 -31.144531 C 32.394531 -32.625 31.296875 -33.628906 30.386719 -34.152344 C 29.722656 -34.539062 29.070312 -34.730469 28.433594 -34.730469 L 28.425781 -34.734375 C 28.457031 -34.738281 28.492188 -34.75 28.527344 -34.765625 C 28.609375 -34.796875 28.675781 -34.835938 28.722656 -34.878906 C 28.863281 -35.015625 28.933594 -35.179688 28.933594 -35.371094 C 28.933594 -35.503906 28.910156 -35.621094 28.859375 -35.714844 C 28.890625 -35.652344 28.988281 -35.550781 29.152344 -35.414062 C 30.074219 -34.625 31.597656 -33.585938 33.726562 -32.292969 C 36.175781 -30.832031 38.226562 -29.496094 39.871094 -28.285156 C 41.808594 -26.859375 43.457031 -25.101562 44.8125 -23.011719 C 46.335938 -20.664062 47.09375 -18.003906 47.09375 -15.03125 C 47.09375 -13.203125 46.804688 -11.382812 46.21875 -9.574219 C 44.847656 -5.003906 42.152344 -1.507812 38.132812 0.910156 C 34.363281 3.175781 30.019531 4.3125 25.097656 4.3125 C 21.523438 4.3125 18.460938 3.875 15.90625 3.007812 C 13.347656 2.136719 10.78125 0.703125 8.203125 -1.296875 L 10.679688 -4.488281 L 13.265625 -1.386719 L 10.816406 0.652344 C 9.421875 1.828125 8.199219 2.65625 7.15625 3.148438 C 5.886719 3.742188 4.5 4.039062 2.992188 4.039062 C 0.992188 4.039062 -0.6875 3.488281 -2.042969 2.382812 C -2.839844 1.730469 -3.449219 0.945312 -3.863281 0.0234375 C -4.253906 -0.84375 -4.445312 -1.78125 -4.445312 -2.789062 C -4.445312 -3.714844 -4.277344 -4.652344 -3.933594 -5.597656 L -0.136719 -4.21875 L -3.972656 -5.480469 L -0.640625 -15.613281 C -0.046875 -17.546875 0.902344 -19.027344 2.199219 -20.042969 C 3.566406 -21.117188 5.214844 -21.65625 7.140625 -21.65625 C 9.1875 -21.65625 11.007812 -20.964844 12.605469 -19.582031 C 13.6875 -18.648438 15.003906 -17.097656 16.550781 -14.929688 C 17.722656 -13.246094 18.714844 -12.140625 19.523438 -11.609375 C 20.097656 -11.234375 20.847656 -11.046875 21.765625 -11.046875 C 22.105469 -11.046875 22.375 -11.066406 22.578125 -11.105469 C 22.625 -11.117188 22.652344 -11.125 22.667969 -11.128906 C 22.636719 -11.117188 22.59375 -11.097656 22.546875 -11.070312 C 22.402344 -10.984375 22.285156 -10.878906 22.191406 -10.753906 C 22.164062 -10.714844 22.140625 -10.679688 22.125 -10.648438 C 22.121094 -10.644531 22.121094 -10.640625 22.121094 -10.640625 C 22.125 -10.648438 22.128906 -10.660156 22.132812 -10.671875 L 22.175781 -10.816406 L 22.234375 -10.953125 C 22.152344 -10.757812 22.101562 -10.574219 22.082031 -10.414062 C 22.078125 -10.398438 22.078125 -10.390625 22.078125 -10.386719 C 22.078125 -10.410156 22.082031 -10.4375 22.082031 -10.476562 C 22.082031 -10.359375 22.101562 -10.253906 22.148438 -10.167969 C 22.125 -10.214844 22.042969 -10.300781 21.90625 -10.417969 C 21.054688 -11.160156 19.648438 -12.101562 17.691406 -13.242188 C 15.210938 -14.75 13.191406 -16.101562 11.625 -17.300781 C 9.792969 -18.703125 8.21875 -20.445312 6.894531 -22.527344 C 5.410156 -24.863281 4.667969 -27.558594 4.667969 -30.609375 C 4.667969 -32.621094 4.980469 -34.597656 5.613281 -36.546875 C 6.835938 -40.570312 9.335938 -43.804688 13.113281 -46.246094 C 16.726562 -48.578125 20.835938 -49.746094 25.4375 -49.746094 Z M 25.4375 -41.667969 C 22.425781 -41.667969 19.777344 -40.933594 17.496094 -39.460938 C 15.375 -38.089844 13.976562 -36.289062 13.296875 -34.058594 C 12.929688 -32.921875 12.746094 -31.769531 12.746094 -30.609375 C 12.746094 -29.125 13.070312 -27.875 13.714844 -26.855469 C 14.523438 -25.582031 15.464844 -24.535156 16.535156 -23.714844 C 17.871094 -22.691406 19.613281 -21.527344 21.761719 -20.222656 C 24.15625 -18.824219 25.972656 -17.589844 27.207031 -16.515625 C 29.175781 -14.804688 30.160156 -12.789062 30.160156 -10.476562 C 30.160156 -9.503906 30.015625 -8.664062 29.734375 -7.953125 L 25.984375 -9.453125 L 29.835938 -8.238281 C 29.25 -6.390625 28.183594 -5.007812 26.632812 -4.101562 C 25.34375 -3.34375 23.722656 -2.96875 21.765625 -2.96875 C 19.238281 -2.96875 17.019531 -3.59375 15.097656 -4.851562 C 13.414062 -5.953125 11.707031 -7.75 9.976562 -10.234375 C 8.804688 -11.878906 7.917969 -12.957031 7.324219 -13.472656 C 7.242188 -13.542969 7.183594 -13.578125 7.140625 -13.578125 C 7.046875 -13.578125 6.984375 -13.574219 6.960938 -13.566406 C 7.035156 -13.589844 7.109375 -13.632812 7.1875 -13.691406 C 7.246094 -13.738281 7.289062 -13.777344 7.324219 -13.820312 C 7.328125 -13.824219 7.332031 -13.832031 7.335938 -13.832031 C 7.328125 -13.824219 7.324219 -13.816406 7.316406 -13.800781 C 7.230469 -13.660156 7.136719 -13.421875 7.035156 -13.089844 L 3.679688 -2.894531 L 3.660156 -2.835938 C 3.644531 -2.792969 3.632812 -2.753906 3.628906 -2.730469 C 3.628906 -2.742188 3.632812 -2.761719 3.632812 -2.789062 C 3.632812 -2.9375 3.589844 -3.101562 3.503906 -3.289062 C 3.398438 -3.53125 3.25 -3.726562 3.0625 -3.878906 C 2.953125 -3.96875 2.851562 -4.023438 2.753906 -4.054688 C 2.789062 -4.042969 2.867188 -4.039062 2.992188 -4.039062 C 3.300781 -4.039062 3.542969 -4.082031 3.726562 -4.167969 C 4.132812 -4.359375 4.773438 -4.820312 5.644531 -5.550781 L 10.589844 -9.671875 L 13.152344 -7.679688 C 15.019531 -6.234375 16.804688 -5.21875 18.511719 -4.640625 C 20.21875 -4.058594 22.414062 -3.765625 25.097656 -3.765625 C 28.523438 -3.765625 31.480469 -4.515625 33.96875 -6.011719 C 36.207031 -7.355469 37.726562 -9.371094 38.53125 -12.054688 C 38.855469 -13.058594 39.015625 -14.050781 39.015625 -15.03125 C 39.015625 -16.410156 38.691406 -17.605469 38.035156 -18.617188 C 37.214844 -19.882812 36.230469 -20.933594 35.085938 -21.777344 C 33.648438 -22.832031 31.796875 -24.039062 29.53125 -25.386719 C 27.03125 -26.90625 25.15625 -28.203125 23.902344 -29.273438 C 21.871094 -31.007812 20.855469 -33.039062 20.855469 -35.371094 C 20.855469 -37.464844 21.605469 -39.238281 23.109375 -40.6875 C 24.570312 -42.101562 26.34375 -42.808594 28.433594 -42.808594 C 30.515625 -42.808594 32.515625 -42.253906 34.433594 -41.144531 C 36.113281 -40.171875 37.890625 -38.613281 39.769531 -36.464844 L 39.800781 -36.429688 L 39.832031 -36.390625 C 41.253906 -34.683594 42.242188 -33.605469 42.789062 -33.15625 L 42.785156 -33.152344 L 42.78125 -33.15625 C 42.796875 -33.152344 42.820312 -33.152344 42.851562 -33.152344 C 42.90625 -33.152344 42.949219 -33.152344 42.976562 -33.15625 C 42.957031 -33.152344 42.921875 -33.144531 42.878906 -33.132812 C 42.644531 -33.058594 42.421875 -32.917969 42.210938 -32.71875 C 42.140625 -32.652344 42.089844 -32.59375 42.046875 -32.535156 C 42.042969 -32.527344 42.039062 -32.523438 42.035156 -32.519531 C 42.042969 -32.53125 42.050781 -32.542969 42.058594 -32.558594 C 42.136719 -32.714844 42.226562 -32.957031 42.320312 -33.28125 L 45.191406 -42.71875 L 45.210938 -42.769531 C 45.214844 -42.78125 45.21875 -42.792969 45.21875 -42.800781 C 45.21875 -42.796875 45.21875 -42.792969 45.21875 -42.789062 C 45.210938 -42.75 45.207031 -42.703125 45.207031 -42.648438 C 45.207031 -42.511719 45.25 -42.351562 45.335938 -42.160156 C 45.464844 -41.886719 45.640625 -41.664062 45.871094 -41.492188 C 45.960938 -41.421875 46.035156 -41.382812 46.09375 -41.363281 C 46.015625 -41.386719 45.886719 -41.398438 45.707031 -41.398438 C 45.382812 -41.398438 45.132812 -41.359375 44.957031 -41.28125 C 44.554688 -41.097656 43.964844 -40.699219 43.179688 -40.078125 L 39.425781 -36.980469 L 36.984375 -38.425781 C 35.0625 -39.5625 33.195312 -40.386719 31.375 -40.90625 C 29.582031 -41.414062 27.601562 -41.667969 25.4375 -41.667969 Z M 25.4375 -41.667969 "/></g></g><g style="fill:#111827;fill-opacity:1;"><g transform="translate(56.055859, 75.388472)"><path style="stroke:none" d="M 30.40625 -39.136719 C 32.175781 -39.136719 33.660156 -38.679688 34.859375 -37.765625 C 35.613281 -37.191406 36.191406 -36.484375 36.59375 -35.648438 C 36.972656 -34.847656 37.164062 -33.984375 37.164062 -33.058594 C 37.164062 -32.609375 37.09375 -32.027344 36.949219 -31.3125 L 36.914062 -31.132812 L 36.863281 -30.960938 C 36.3125 -29.089844 35.328125 -27.640625 33.914062 -26.601562 C 32.523438 -25.582031 30.855469 -25.074219 28.90625 -25.074219 L 24.964844 -25.074219 L 24.964844 -29.113281 L 28.828125 -27.9375 L 23.710938 -11.085938 L 23.691406 -11.035156 C 23.605469 -10.769531 23.558594 -10.492188 23.558594 -10.203125 C 23.558594 -10.3125 23.519531 -10.46875 23.441406 -10.664062 C 23.257812 -11.128906 22.949219 -11.507812 22.519531 -11.8125 C 22.335938 -11.9375 22.164062 -12.023438 21.996094 -12.0625 C 21.976562 -12.070312 21.96875 -12.070312 21.96875 -12.070312 C 22.003906 -12.066406 22.050781 -12.066406 22.105469 -12.066406 C 22.609375 -12.066406 23.292969 -12.136719 24.164062 -12.28125 L 24.828125 -8.296875 L 23.847656 -12.214844 C 24.714844 -12.433594 25.515625 -12.542969 26.253906 -12.542969 C 26.964844 -12.542969 27.636719 -12.40625 28.261719 -12.136719 C 29.019531 -11.8125 29.652344 -11.328125 30.15625 -10.675781 C 30.882812 -9.742188 31.246094 -8.65625 31.246094 -7.414062 L 27.207031 -7.414062 L 31.242188 -7.617188 C 31.347656 -5.460938 30.253906 -3.308594 27.957031 -1.164062 C 26.203125 0.476562 23.90625 1.859375 21.070312 2.976562 C 18.238281 4.09375 15.136719 4.652344 11.765625 4.652344 C 7.78125 4.652344 4.496094 3.675781 1.917969 1.726562 C 0.46875 0.628906 -0.628906 -0.691406 -1.375 -2.242188 C -2.109375 -3.757812 -2.472656 -5.4375 -2.472656 -7.277344 C -2.472656 -8.867188 -2.21875 -10.398438 -1.707031 -11.871094 L 2.109375 -10.542969 L -1.734375 -11.785156 L 2.617188 -25.253906 L 6.460938 -24.011719 L 2.585938 -25.152344 C 2.660156 -25.402344 2.714844 -25.613281 2.746094 -25.785156 C 2.753906 -25.835938 2.761719 -25.875 2.765625 -25.90625 C 2.761719 -25.894531 2.761719 -25.875 2.761719 -25.847656 C 2.761719 -25.929688 2.757812 -25.988281 2.75 -26.019531 C 2.761719 -25.980469 2.78125 -25.9375 2.8125 -25.890625 C 2.574219 -26.246094 2.195312 -26.648438 1.679688 -27.105469 L 1.636719 -27.140625 L 1.597656 -27.179688 C 0.664062 -28.050781 -0.03125 -28.851562 -0.488281 -29.574219 C -1.363281 -30.953125 -1.601562 -32.484375 -1.214844 -34.167969 L -1.183594 -34.3125 L -1.140625 -34.449219 C -0.632812 -36.09375 0.402344 -37.335938 1.960938 -38.179688 C 3.148438 -38.816406 4.71875 -39.136719 6.664062 -39.136719 L 10.476562 -39.136719 L 10.476562 -35.097656 L 7.617188 -37.953125 L 11.902344 -42.238281 C 13.730469 -44.066406 15.480469 -45.375 17.148438 -46.164062 C 18.941406 -47.011719 21.140625 -47.433594 23.738281 -47.433594 C 26.074219 -47.433594 27.964844 -46.886719 29.402344 -45.792969 C 30.3125 -45.097656 31 -44.226562 31.457031 -43.179688 C 31.859375 -42.253906 32.0625 -41.238281 32.0625 -40.132812 C 32.0625 -39.046875 31.914062 -38.015625 31.613281 -37.039062 L 30.664062 -33.921875 L 26.800781 -35.097656 L 26.800781 -39.136719 Z M 30.40625 -31.058594 L 21.347656 -31.058594 L 23.890625 -39.414062 C 23.953125 -39.617188 23.984375 -39.855469 23.984375 -40.132812 C 23.984375 -40.148438 23.984375 -40.164062 23.984375 -40.175781 C 23.984375 -40.171875 23.984375 -40.164062 23.988281 -40.152344 C 24 -40.089844 24.023438 -40.019531 24.054688 -39.941406 C 24.15625 -39.710938 24.304688 -39.519531 24.503906 -39.367188 C 24.566406 -39.320312 24.621094 -39.285156 24.671875 -39.261719 L 24.675781 -39.261719 C 24.660156 -39.265625 24.640625 -39.269531 24.621094 -39.277344 C 24.410156 -39.332031 24.117188 -39.355469 23.738281 -39.355469 C 22.347656 -39.355469 21.300781 -39.191406 20.601562 -38.859375 C 19.777344 -38.46875 18.78125 -37.691406 17.617188 -36.527344 L 12.148438 -31.058594 L 6.664062 -31.058594 C 6.257812 -31.058594 5.9375 -31.039062 5.695312 -30.996094 C 5.644531 -30.988281 5.609375 -30.980469 5.589844 -30.976562 C 5.644531 -30.992188 5.714844 -31.023438 5.792969 -31.066406 C 6.175781 -31.273438 6.4375 -31.609375 6.582031 -32.074219 L 2.722656 -33.261719 L 6.65625 -32.351562 C 6.699219 -32.535156 6.703125 -32.742188 6.671875 -32.96875 C 6.628906 -33.300781 6.519531 -33.605469 6.339844 -33.886719 C 6.425781 -33.75 6.683594 -33.484375 7.109375 -33.085938 L 4.351562 -30.132812 L 7.027344 -33.160156 C 8.050781 -32.253906 8.875 -31.34375 9.496094 -30.429688 C 10.394531 -29.109375 10.839844 -27.582031 10.839844 -25.847656 C 10.839844 -25.007812 10.671875 -24.015625 10.335938 -22.871094 L 10.320312 -22.820312 L 5.9375 -9.257812 L 5.921875 -9.214844 C 5.710938 -8.601562 5.601562 -7.957031 5.601562 -7.277344 C 5.601562 -6.667969 5.703125 -6.160156 5.898438 -5.75 C 6.082031 -5.375 6.378906 -5.027344 6.789062 -4.71875 C 7.929688 -3.855469 9.585938 -3.425781 11.765625 -3.425781 C 14.113281 -3.425781 16.226562 -3.796875 18.109375 -4.539062 C 19.988281 -5.28125 21.433594 -6.125 22.445312 -7.066406 C 22.863281 -7.460938 23.148438 -7.773438 23.289062 -8.007812 L 23.296875 -8.019531 C 23.28125 -7.984375 23.265625 -7.945312 23.25 -7.894531 C 23.1875 -7.691406 23.160156 -7.460938 23.171875 -7.210938 L 23.167969 -7.3125 L 23.167969 -7.414062 C 23.167969 -6.808594 23.371094 -6.242188 23.78125 -5.714844 C 24.128906 -5.269531 24.5625 -4.9375 25.082031 -4.714844 C 25.46875 -4.546875 25.863281 -4.464844 26.253906 -4.464844 C 26.179688 -4.464844 26.027344 -4.433594 25.804688 -4.378906 L 25.648438 -4.339844 L 25.492188 -4.3125 C 24.183594 -4.097656 23.054688 -3.988281 22.105469 -3.988281 C 20.441406 -3.988281 19.035156 -4.390625 17.886719 -5.195312 C 17 -5.8125 16.351562 -6.636719 15.941406 -7.664062 C 15.636719 -8.429688 15.484375 -9.277344 15.484375 -10.203125 C 15.484375 -11.367188 15.664062 -12.492188 16.03125 -13.589844 L 19.863281 -12.3125 L 15.996094 -13.484375 L 21.96875 -33.152344 L 28.90625 -33.152344 C 29.0625 -33.152344 29.179688 -33.160156 29.253906 -33.183594 C 29.226562 -33.175781 29.1875 -33.152344 29.136719 -33.117188 C 29.082031 -33.078125 29.042969 -33.039062 29.019531 -33 C 29.046875 -33.046875 29.078125 -33.128906 29.117188 -33.25 L 32.988281 -32.105469 L 29.027344 -32.898438 C 29.058594 -33.050781 29.082031 -33.167969 29.09375 -33.253906 L 29.09375 -33.261719 C 29.089844 -33.203125 29.085938 -33.132812 29.085938 -33.058594 C 29.085938 -32.765625 29.15625 -32.46875 29.300781 -32.167969 C 29.464844 -31.828125 29.683594 -31.554688 29.964844 -31.339844 C 30.144531 -31.203125 30.320312 -31.109375 30.496094 -31.0625 C 30.519531 -31.058594 30.535156 -31.054688 30.539062 -31.054688 C 30.503906 -31.058594 30.460938 -31.058594 30.40625 -31.058594 Z M 30.40625 -31.058594 "/></g></g><g style="fill:#111827;fill-opacity:1;"><g transform="translate(85.302458, 75.388472)"><path style="stroke:none" d="M 17.890625 -40.019531 C 21.476562 -40.019531 24.253906 -39.21875 26.222656 -37.617188 C 27.328125 -36.714844 28.164062 -35.636719 28.730469 -34.375 C 29.273438 -33.167969 29.546875 -31.84375 29.546875 -30.40625 C 29.546875 -28.925781 29.320312 -27.5 28.863281 -26.132812 L 25.03125 -27.410156 L 28.890625 -26.222656 L 22.632812 -5.886719 L 18.773438 -7.074219 L 22.691406 -6.09375 C 22.636719 -5.871094 22.609375 -5.722656 22.609375 -5.644531 C 22.609375 -5.675781 22.597656 -5.730469 22.578125 -5.8125 C 22.523438 -6.039062 22.417969 -6.265625 22.269531 -6.492188 C 22.25 -6.523438 22.234375 -6.542969 22.222656 -6.554688 C 22.25 -6.527344 22.289062 -6.496094 22.339844 -6.453125 L 22.539062 -6.296875 L 22.71875 -6.121094 C 23.222656 -5.613281 23.617188 -5.148438 23.902344 -4.722656 C 24.351562 -4.046875 24.613281 -3.300781 24.683594 -2.484375 C 24.738281 -1.859375 24.675781 -1.226562 24.492188 -0.589844 L 24.445312 -0.417969 L 24.378906 -0.25 C 23.730469 1.4375 22.519531 2.632812 20.75 3.34375 C 19.585938 3.808594 18.042969 4.039062 16.121094 4.039062 L 0.613281 4.039062 C -1.425781 4.039062 -3.0625 3.597656 -4.308594 2.71875 C -5.273438 2.03125 -5.945312 1.160156 -6.324219 0.101562 C -6.703125 -0.964844 -6.726562 -2.070312 -6.398438 -3.21875 L -6.375 -3.300781 L -6.347656 -3.386719 C -5.824219 -4.953125 -4.703125 -6.195312 -2.976562 -7.105469 C -2.714844 -7.246094 -2.515625 -7.394531 -2.375 -7.546875 C -2.410156 -7.507812 -2.433594 -7.480469 -2.449219 -7.457031 C -2.433594 -7.480469 -2.414062 -7.515625 -2.390625 -7.5625 C -2.296875 -7.753906 -2.203125 -8.015625 -2.109375 -8.339844 L 3.835938 -28.089844 L 3.855469 -28.144531 C 3.863281 -28.175781 3.871094 -28.203125 3.878906 -28.222656 C 3.859375 -28.128906 3.851562 -28.019531 3.851562 -27.886719 C 3.851562 -27.472656 4.015625 -27.046875 4.347656 -26.617188 C 4.386719 -26.566406 4.410156 -26.539062 4.421875 -26.527344 C 4.375 -26.570312 4.304688 -26.625 4.214844 -26.6875 L 4.109375 -26.761719 L 4.007812 -26.84375 C 3.226562 -27.464844 2.628906 -28.089844 2.21875 -28.707031 C 1.722656 -29.445312 1.449219 -30.269531 1.394531 -31.171875 C 1.351562 -31.835938 1.433594 -32.507812 1.640625 -33.199219 L 5.507812 -32.035156 L 1.601562 -33.054688 C 2.003906 -34.59375 3.003906 -35.878906 4.601562 -36.90625 C 5.625 -37.566406 6.960938 -38.148438 8.609375 -38.652344 C 11.582031 -39.566406 14.671875 -40.019531 17.890625 -40.019531 Z M 17.890625 -31.941406 C 15.480469 -31.941406 13.179688 -31.605469 10.980469 -30.929688 C 10.042969 -30.640625 9.371094 -30.367188 8.96875 -30.109375 C 8.929688 -30.085938 8.902344 -30.066406 8.890625 -30.054688 C 8.914062 -30.074219 8.945312 -30.109375 8.980469 -30.148438 C 9.183594 -30.378906 9.328125 -30.667969 9.417969 -31.015625 L 9.378906 -30.875 C 9.449219 -31.109375 9.472656 -31.378906 9.457031 -31.675781 C 9.421875 -32.21875 9.25 -32.722656 8.9375 -33.1875 C 8.882812 -33.273438 8.835938 -33.332031 8.808594 -33.363281 C 8.859375 -33.308594 8.941406 -33.238281 9.054688 -33.148438 L 6.53125 -29.996094 L 8.847656 -33.304688 C 9.636719 -32.75 10.273438 -32.164062 10.75 -31.539062 C 11.535156 -30.519531 11.929688 -29.300781 11.929688 -27.886719 C 11.929688 -27.179688 11.792969 -26.414062 11.519531 -25.589844 L 7.6875 -26.867188 L 11.554688 -25.703125 L 5.644531 -6.078125 C 5.15625 -4.394531 4.472656 -3.070312 3.601562 -2.113281 C 2.832031 -1.269531 1.902344 -0.554688 0.800781 0.03125 C 0.761719 0.0546875 0.738281 0.0664062 0.726562 0.078125 C 0.753906 0.0546875 0.789062 0.0234375 0.832031 -0.0195312 C 1.042969 -0.230469 1.203125 -0.5 1.316406 -0.832031 L -2.515625 -2.109375 L 1.367188 -1 C 1.511719 -1.511719 1.488281 -2.046875 1.289062 -2.601562 C 1.09375 -3.152344 0.785156 -3.574219 0.363281 -3.875 C 0.191406 -3.992188 0.0585938 -4.066406 -0.0351562 -4.085938 C 0.105469 -4.054688 0.320312 -4.039062 0.613281 -4.039062 L 16.121094 -4.039062 C 16.648438 -4.039062 17.085938 -4.0625 17.433594 -4.105469 C 17.558594 -4.125 17.660156 -4.140625 17.742188 -4.160156 L 17.75 -4.160156 C 17.609375 -4.101562 17.464844 -4.003906 17.316406 -3.863281 C 17.105469 -3.660156 16.945312 -3.421875 16.839844 -3.152344 L 20.609375 -1.699219 L 16.726562 -2.808594 C 16.636719 -2.492188 16.605469 -2.148438 16.636719 -1.785156 C 16.683594 -1.226562 16.867188 -0.714844 17.179688 -0.242188 C 17.203125 -0.210938 17.222656 -0.183594 17.238281 -0.160156 C 17.238281 -0.164062 17.230469 -0.167969 17.222656 -0.179688 C 17.171875 -0.242188 17.097656 -0.316406 17.003906 -0.410156 L 19.863281 -3.265625 L 17.382812 -0.078125 C 16.628906 -0.664062 16.019531 -1.308594 15.546875 -2.011719 C 14.871094 -3.027344 14.53125 -4.242188 14.53125 -5.644531 C 14.53125 -6.386719 14.636719 -7.1875 14.855469 -8.054688 L 14.882812 -8.160156 L 21.183594 -28.644531 L 21.199219 -28.6875 C 21.378906 -29.226562 21.46875 -29.796875 21.46875 -30.40625 C 21.46875 -30.6875 21.433594 -30.90625 21.363281 -31.058594 C 21.320312 -31.160156 21.238281 -31.257812 21.121094 -31.355469 C 20.964844 -31.480469 20.6875 -31.597656 20.296875 -31.699219 C 19.664062 -31.859375 18.859375 -31.941406 17.890625 -31.941406 Z M 22.445312 -55.054688 C 25.316406 -55.054688 27.730469 -54.089844 29.695312 -52.164062 C 31.683594 -50.214844 32.675781 -47.835938 32.675781 -45.027344 C 32.675781 -43.167969 32.207031 -41.371094 31.273438 -39.640625 C 30.324219 -37.886719 29 -36.472656 27.292969 -35.390625 C 25.523438 -34.273438 23.566406 -33.710938 21.425781 -33.710938 C 18.585938 -33.710938 16.195312 -34.683594 14.25 -36.628906 C 12.335938 -38.542969 11.339844 -40.902344 11.265625 -43.699219 L 11.265625 -43.804688 C 11.265625 -45.609375 11.71875 -47.363281 12.621094 -49.0625 C 13.527344 -50.777344 14.808594 -52.183594 16.464844 -53.285156 C 18.230469 -54.464844 20.226562 -55.054688 22.445312 -55.054688 Z M 22.445312 -46.976562 C 21.855469 -46.976562 21.355469 -46.839844 20.945312 -46.566406 C 20.421875 -46.21875 20.027344 -45.789062 19.757812 -45.277344 C 19.480469 -44.757812 19.34375 -44.269531 19.34375 -43.804688 L 15.304688 -43.804688 L 19.34375 -43.910156 C 19.359375 -43.261719 19.566406 -42.738281 19.960938 -42.339844 C 20.332031 -41.972656 20.816406 -41.789062 21.425781 -41.789062 C 22.007812 -41.789062 22.523438 -41.933594 22.972656 -42.21875 C 23.488281 -42.542969 23.886719 -42.964844 24.164062 -43.480469 C 24.453125 -44.011719 24.597656 -44.53125 24.597656 -45.027344 C 24.597656 -45.574219 24.410156 -46.03125 24.039062 -46.394531 C 23.644531 -46.78125 23.113281 -46.976562 22.445312 -46.976562 Z M 22.445312 -46.976562 "/></g></g><g style="fill:#111827;fill-opacity:1;"><g transform="translate(110.196076, 75.388472)"><path style="stroke:none" d="M 24.691406 -40.359375 C 27.953125 -40.359375 30.855469 -39.875 33.40625 -38.90625 C 36.148438 -37.863281 38.324219 -36.378906 39.929688 -34.457031 C 41.714844 -32.324219 42.605469 -29.929688 42.605469 -27.277344 C 42.605469 -24.300781 41.5625 -21.828125 39.472656 -19.851562 C 37.445312 -17.9375 34.832031 -16.980469 31.628906 -16.980469 C 28.414062 -16.980469 25.808594 -17.882812 23.8125 -19.691406 C 21.707031 -21.605469 20.652344 -24.109375 20.652344 -27.207031 C 20.652344 -28.476562 20.835938 -29.78125 21.203125 -31.128906 L 25.097656 -30.0625 L 26.121094 -26.15625 C 24.921875 -25.84375 23.84375 -25.207031 22.886719 -24.25 C 21.984375 -23.34375 21.363281 -22.085938 21.027344 -20.46875 C 20.8125 -19.390625 20.703125 -18.4375 20.703125 -17.617188 C 20.703125 -16.339844 20.957031 -15.464844 21.460938 -14.992188 C 22.046875 -14.445312 23.078125 -14.175781 24.554688 -14.175781 C 25.632812 -14.175781 26.511719 -14.269531 27.199219 -14.464844 C 28.039062 -14.703125 28.910156 -15.027344 29.808594 -15.4375 L 31.492188 -11.765625 L 29.6875 -15.378906 C 31.160156 -16.117188 32.421875 -16.488281 33.464844 -16.488281 C 34.011719 -16.488281 34.527344 -16.410156 35.011719 -16.261719 C 35.886719 -15.988281 36.605469 -15.5 37.164062 -14.800781 C 37.84375 -13.949219 38.183594 -12.871094 38.183594 -11.5625 L 34.144531 -11.5625 L 38.183594 -11.671875 C 38.253906 -9.03125 37.28125 -6.410156 35.257812 -3.8125 C 33.453125 -1.488281 31.015625 0.433594 27.945312 1.953125 C 24.863281 3.480469 21.445312 4.242188 17.683594 4.242188 C 13.808594 4.242188 10.339844 3.511719 7.273438 2.046875 C 4.039062 0.503906 1.523438 -1.730469 -0.277344 -4.648438 C -2.058594 -7.542969 -2.949219 -10.867188 -2.949219 -14.625 C -2.949219 -16.308594 -2.742188 -18.152344 -2.320312 -20.148438 C -0.863281 -26.839844 2.40625 -31.914062 7.488281 -35.375 C 12.367188 -38.699219 18.101562 -40.359375 24.691406 -40.359375 Z M 24.691406 -32.28125 C 19.761719 -32.28125 15.542969 -31.089844 12.035156 -28.699219 C 8.726562 -26.445312 6.578125 -23.042969 5.585938 -18.484375 C 5.28125 -17.035156 5.128906 -15.75 5.128906 -14.625 C 5.128906 -12.394531 5.617188 -10.480469 6.601562 -8.886719 C 7.570312 -7.316406 8.953125 -6.101562 10.753906 -5.242188 C 12.71875 -4.304688 15.03125 -3.835938 17.683594 -3.835938 C 20.183594 -3.835938 22.410156 -4.320312 24.359375 -5.285156 C 26.324219 -6.257812 27.832031 -7.421875 28.882812 -8.773438 C 29.71875 -9.847656 30.128906 -10.742188 30.109375 -11.453125 L 30.105469 -11.507812 L 30.105469 -11.5625 C 30.105469 -11.492188 30.117188 -11.390625 30.144531 -11.257812 C 30.246094 -10.71875 30.484375 -10.21875 30.855469 -9.753906 C 31.324219 -9.167969 31.90625 -8.765625 32.601562 -8.550781 C 32.902344 -8.457031 33.191406 -8.410156 33.464844 -8.410156 C 33.648438 -8.410156 33.808594 -8.421875 33.953125 -8.453125 C 33.976562 -8.460938 33.996094 -8.464844 34.011719 -8.46875 C 34.007812 -8.46875 33.996094 -8.464844 33.984375 -8.460938 C 33.820312 -8.402344 33.59375 -8.300781 33.300781 -8.15625 L 33.175781 -8.09375 C 31.898438 -7.511719 30.636719 -7.042969 29.394531 -6.691406 C 27.992188 -6.292969 26.378906 -6.097656 24.554688 -6.097656 C 20.953125 -6.097656 18.085938 -7.09375 15.949219 -9.085938 C 13.734375 -11.15625 12.625 -14 12.625 -17.617188 C 12.625 -18.972656 12.789062 -20.46875 13.117188 -22.109375 C 13.78125 -25.300781 15.132812 -27.917969 17.175781 -29.960938 C 19.164062 -31.953125 21.464844 -33.289062 24.074219 -33.972656 L 30.832031 -35.742188 L 28.996094 -29 C 28.820312 -28.351562 28.730469 -27.753906 28.730469 -27.207031 C 28.730469 -26.496094 28.902344 -25.984375 29.242188 -25.675781 C 29.695312 -25.261719 30.492188 -25.058594 31.628906 -25.058594 C 32.6875 -25.058594 33.453125 -25.277344 33.921875 -25.722656 C 34.324219 -26.105469 34.527344 -26.621094 34.527344 -27.277344 C 34.527344 -27.976562 34.261719 -28.644531 33.734375 -29.277344 C 33.027344 -30.121094 31.960938 -30.8125 30.53125 -31.355469 C 28.910156 -31.972656 26.960938 -32.28125 24.691406 -32.28125 Z M 24.691406 -32.28125 "/></g></g><g style="fill:#111827;fill-opacity:1;"><g transform="translate(147.0604, 75.388472)"><path style="stroke:none" d="M 40.335938 -40.019531 C 43.964844 -40.019531 46.945312 -38.953125 49.28125 -36.820312 C 51.722656 -34.59375 52.945312 -31.863281 52.945312 -28.636719 C 52.945312 -25.289062 51.859375 -22.601562 49.683594 -20.578125 C 47.59375 -18.632812 44.953125 -17.660156 41.765625 -17.660156 C 38.796875 -17.660156 36.402344 -18.507812 34.585938 -20.210938 C 33.671875 -21.0625 32.980469 -22.007812 32.507812 -23.046875 C 31.996094 -24.175781 31.761719 -25.363281 31.808594 -26.609375 L 35.847656 -26.460938 L 35.054688 -22.5 C 35.699219 -22.371094 36.324219 -22.449219 36.9375 -22.738281 C 37.390625 -22.953125 37.746094 -23.238281 38 -23.597656 C 38.039062 -23.65625 38.0625 -23.695312 38.070312 -23.710938 C 38.042969 -23.652344 38.007812 -23.570312 37.964844 -23.460938 C 37.84375 -23.144531 37.710938 -22.71875 37.5625 -22.1875 C 37.183594 -20.746094 36.46875 -19.421875 35.417969 -18.222656 L 32.378906 -20.882812 L 32.671875 -24.910156 C 36.578125 -24.621094 39.601562 -23.636719 41.746094 -21.945312 C 42.972656 -20.980469 43.910156 -19.839844 44.554688 -18.535156 C 45.203125 -17.210938 45.53125 -15.773438 45.53125 -14.214844 C 45.53125 -12.851562 45.296875 -11.5 44.828125 -10.160156 L 41.015625 -11.496094 L 44.925781 -10.484375 L 44.316406 -8.125 L 44.222656 -7.886719 C 44.324219 -8.140625 44.375 -8.347656 44.375 -8.503906 C 44.375 -8.75 44.332031 -9.011719 44.25 -9.28125 C 44.105469 -9.746094 43.859375 -10.167969 43.515625 -10.535156 C 43.144531 -10.9375 42.703125 -11.230469 42.199219 -11.410156 C 41.867188 -11.53125 41.539062 -11.589844 41.21875 -11.589844 C 40.84375 -11.589844 40.480469 -11.5 40.136719 -11.324219 C 39.859375 -11.183594 39.640625 -11.011719 39.476562 -10.804688 C 39.792969 -11.203125 40.09375 -11.527344 40.375 -11.78125 C 41.277344 -12.605469 42.285156 -13.015625 43.394531 -13.015625 C 44.464844 -13.015625 45.417969 -12.679688 46.25 -12.003906 C 46.824219 -11.535156 47.277344 -10.945312 47.609375 -10.230469 C 47.992188 -9.398438 48.183594 -8.480469 48.183594 -7.480469 L 44.144531 -7.480469 L 48.179688 -7.621094 C 48.257812 -5.433594 47.632812 -3.355469 46.304688 -1.382812 C 45.050781 0.484375 43.230469 1.972656 40.851562 3.082031 C 38.609375 4.128906 35.988281 4.652344 32.988281 4.652344 C 29.1875 4.652344 25.960938 3.65625 23.316406 1.664062 C 21.851562 0.558594 20.738281 -0.746094 19.972656 -2.257812 C 19.203125 -3.78125 18.816406 -5.457031 18.816406 -7.277344 C 18.816406 -8.578125 19.066406 -9.976562 19.566406 -11.480469 L 19.59375 -11.558594 L 20.914062 -15.039062 L 24.691406 -13.605469 L 20.800781 -14.683594 C 20.882812 -14.988281 20.945312 -15.234375 20.980469 -15.421875 C 20.988281 -15.472656 20.996094 -15.511719 21 -15.535156 C 20.996094 -15.496094 20.992188 -15.441406 20.992188 -15.371094 C 20.992188 -15.09375 21.0625 -14.796875 21.199219 -14.488281 C 21.40625 -14.027344 21.710938 -13.65625 22.125 -13.363281 C 22.367188 -13.191406 22.601562 -13.082031 22.820312 -13.03125 L 22.835938 -13.027344 C 22.789062 -13.03125 22.726562 -13.035156 22.648438 -13.035156 L 21.289062 -13.035156 L 21.289062 -17.074219 L 25.152344 -15.890625 L 22.089844 -5.890625 L 18.230469 -7.074219 L 22.148438 -6.09375 C 22.09375 -5.871094 22.0625 -5.722656 22.0625 -5.644531 C 22.0625 -5.675781 22.054688 -5.730469 22.035156 -5.8125 C 21.976562 -6.039062 21.875 -6.265625 21.726562 -6.492188 C 21.703125 -6.523438 21.6875 -6.542969 21.679688 -6.554688 C 21.703125 -6.527344 21.746094 -6.496094 21.796875 -6.453125 L 21.996094 -6.296875 L 22.171875 -6.121094 C 22.679688 -5.613281 23.074219 -5.148438 23.359375 -4.722656 C 23.808594 -4.046875 24.070312 -3.300781 24.140625 -2.484375 C 24.195312 -1.859375 24.132812 -1.226562 23.949219 -0.589844 L 23.898438 -0.417969 L 23.835938 -0.25 C 23.1875 1.4375 21.976562 2.632812 20.207031 3.34375 C 19.042969 3.808594 17.5 4.039062 15.578125 4.039062 L 0.0664062 4.039062 C -1.96875 4.039062 -3.609375 3.597656 -4.851562 2.71875 C -5.820312 2.03125 -6.492188 1.160156 -6.867188 0.101562 C -7.246094 -0.964844 -7.273438 -2.070312 -6.945312 -3.21875 L -6.921875 -3.300781 L -6.894531 -3.386719 C -6.371094 -4.953125 -5.246094 -6.195312 -3.523438 -7.105469 C -3.261719 -7.246094 -3.058594 -7.394531 -2.921875 -7.546875 C -2.953125 -7.507812 -2.976562 -7.480469 -2.992188 -7.457031 C -2.976562 -7.480469 -2.960938 -7.515625 -2.9375 -7.5625 C -2.84375 -7.753906 -2.75 -8.015625 -2.652344 -8.339844 L 7.714844 -42.378906 L 7.730469 -42.429688 C 7.742188 -42.460938 7.75 -42.484375 7.753906 -42.507812 L 7.753906 -42.503906 C 7.738281 -42.414062 7.726562 -42.300781 7.726562 -42.171875 C 7.726562 -41.738281 7.890625 -41.316406 8.21875 -40.902344 C 8.171875 -40.957031 8.074219 -41.046875 7.925781 -41.160156 C 7.179688 -41.757812 6.597656 -42.332031 6.1875 -42.878906 C 5.632812 -43.621094 5.308594 -44.460938 5.21875 -45.398438 C 5.15625 -46.105469 5.230469 -46.820312 5.449219 -47.550781 L 9.320312 -46.390625 L 5.410156 -47.410156 C 5.8125 -48.957031 6.820312 -50.238281 8.429688 -51.261719 C 9.457031 -51.914062 10.800781 -52.488281 12.449219 -52.980469 C 15.410156 -53.863281 18.492188 -54.304688 21.699219 -54.304688 C 25.269531 -54.304688 28.035156 -53.523438 29.996094 -51.964844 C 31.113281 -51.070312 31.960938 -49.996094 32.535156 -48.730469 C 33.082031 -47.523438 33.355469 -46.199219 33.355469 -44.757812 C 33.355469 -43.277344 33.128906 -41.851562 32.671875 -40.488281 L 28.839844 -41.765625 L 32.703125 -40.582031 L 26.785156 -21.261719 L 22.921875 -22.445312 L 22.921875 -26.484375 L 25.167969 -26.484375 C 25.140625 -26.484375 25.082031 -26.46875 25 -26.4375 C 24.84375 -26.378906 24.703125 -26.292969 24.582031 -26.175781 C 24.566406 -26.164062 24.558594 -26.152344 24.554688 -26.148438 C 24.570312 -26.167969 24.585938 -26.195312 24.605469 -26.230469 C 24.6875 -26.378906 24.765625 -26.574219 24.839844 -26.820312 L 24.878906 -26.9375 C 26.21875 -30.90625 28.027344 -34 30.304688 -36.222656 C 32.902344 -38.753906 36.246094 -40.019531 40.335938 -40.019531 Z M 40.335938 -31.941406 C 38.4375 -31.941406 36.972656 -31.441406 35.945312 -30.4375 C 34.59375 -29.121094 33.457031 -27.09375 32.53125 -24.351562 L 28.703125 -25.644531 L 32.566406 -24.46875 C 32.046875 -22.753906 31.25 -21.378906 30.175781 -20.347656 C 28.828125 -19.054688 27.15625 -18.40625 25.167969 -18.40625 L 17.460938 -18.40625 L 24.992188 -42.992188 L 25.007812 -43.039062 C 25.1875 -43.578125 25.277344 -44.152344 25.277344 -44.757812 C 25.277344 -45.035156 25.246094 -45.246094 25.179688 -45.390625 C 25.140625 -45.476562 25.070312 -45.558594 24.964844 -45.644531 C 24.804688 -45.769531 24.527344 -45.882812 24.125 -45.984375 C 23.488281 -46.144531 22.679688 -46.226562 21.699219 -46.226562 C 19.28125 -46.226562 16.964844 -45.898438 14.757812 -45.238281 C 13.824219 -44.960938 13.15625 -44.695312 12.757812 -44.441406 C 12.722656 -44.417969 12.699219 -44.402344 12.683594 -44.390625 C 12.710938 -44.414062 12.746094 -44.445312 12.785156 -44.492188 C 12.988281 -44.722656 13.136719 -45.015625 13.226562 -45.371094 L 13.207031 -45.296875 L 13.1875 -45.226562 C 13.269531 -45.503906 13.296875 -45.8125 13.261719 -46.152344 C 13.210938 -46.730469 13.003906 -47.253906 12.652344 -47.722656 C 12.628906 -47.753906 12.609375 -47.777344 12.59375 -47.796875 C 12.597656 -47.789062 12.609375 -47.78125 12.625 -47.765625 C 12.699219 -47.691406 12.785156 -47.617188 12.886719 -47.535156 C 13.554688 -47.015625 14.117188 -46.46875 14.570312 -45.890625 C 15.394531 -44.84375 15.804688 -43.601562 15.804688 -42.171875 C 15.804688 -41.460938 15.667969 -40.695312 15.394531 -39.875 L 11.5625 -41.152344 L 15.425781 -39.972656 L 5.101562 -6.078125 C 4.609375 -4.394531 3.929688 -3.070312 3.058594 -2.113281 C 2.289062 -1.269531 1.355469 -0.554688 0.257812 0.03125 C 0.21875 0.0546875 0.195312 0.0664062 0.179688 0.078125 C 0.210938 0.0546875 0.246094 0.0234375 0.289062 -0.0195312 C 0.5 -0.230469 0.660156 -0.5 0.769531 -0.832031 L -3.0625 -2.109375 L 0.824219 -1 C 0.96875 -1.511719 0.941406 -2.046875 0.746094 -2.601562 C 0.550781 -3.152344 0.242188 -3.574219 -0.183594 -3.875 C -0.351562 -3.992188 -0.484375 -4.066406 -0.582031 -4.085938 C -0.441406 -4.054688 -0.222656 -4.039062 0.0664062 -4.039062 L 15.578125 -4.039062 C 16.105469 -4.039062 16.542969 -4.0625 16.890625 -4.105469 C 17.015625 -4.125 17.117188 -4.140625 17.195312 -4.160156 L 17.207031 -4.160156 C 17.066406 -4.101562 16.921875 -4.003906 16.773438 -3.863281 C 16.558594 -3.660156 16.402344 -3.421875 16.296875 -3.152344 L 20.066406 -1.699219 L 16.183594 -2.808594 C 16.089844 -2.492188 16.0625 -2.148438 16.09375 -1.785156 C 16.140625 -1.226562 16.324219 -0.714844 16.636719 -0.242188 C 16.660156 -0.210938 16.679688 -0.183594 16.695312 -0.160156 C 16.691406 -0.164062 16.6875 -0.167969 16.675781 -0.179688 C 16.625 -0.242188 16.554688 -0.316406 16.460938 -0.410156 L 19.316406 -3.265625 L 16.835938 -0.078125 C 16.085938 -0.664062 15.472656 -1.308594 15.003906 -2.011719 C 14.324219 -3.027344 13.984375 -4.242188 13.984375 -5.644531 C 13.984375 -6.386719 14.09375 -7.1875 14.3125 -8.054688 L 14.335938 -8.15625 L 18.300781 -21.113281 L 22.648438 -21.113281 C 24.320312 -21.113281 25.699219 -20.730469 26.78125 -19.964844 C 27.578125 -19.402344 28.175781 -18.675781 28.574219 -17.785156 C 28.90625 -17.046875 29.070312 -16.242188 29.070312 -15.371094 C 29.070312 -14.640625 28.90625 -13.691406 28.582031 -12.523438 L 28.53125 -12.34375 L 27.175781 -8.769531 L 23.398438 -10.203125 L 27.230469 -8.925781 C 27.003906 -8.25 26.894531 -7.703125 26.894531 -7.277344 C 26.894531 -6.742188 26.988281 -6.285156 27.179688 -5.90625 C 27.378906 -5.511719 27.710938 -5.140625 28.175781 -4.792969 C 29.382812 -3.882812 30.988281 -3.425781 32.988281 -3.425781 C 34.796875 -3.425781 36.277344 -3.699219 37.4375 -4.238281 C 38.460938 -4.714844 39.179688 -5.265625 39.601562 -5.894531 C 39.953125 -6.417969 40.121094 -6.898438 40.109375 -7.34375 L 40.105469 -7.414062 L 40.105469 -7.480469 C 40.105469 -7.296875 40.160156 -7.085938 40.273438 -6.84375 C 40.46875 -6.421875 40.761719 -6.054688 41.15625 -5.734375 C 41.804688 -5.203125 42.554688 -4.941406 43.394531 -4.941406 C 44.109375 -4.941406 44.757812 -5.117188 45.347656 -5.46875 C 45.53125 -5.578125 45.6875 -5.695312 45.820312 -5.816406 C 45.84375 -5.835938 45.863281 -5.855469 45.878906 -5.871094 L 45.875 -5.867188 C 45.84375 -5.832031 45.804688 -5.785156 45.753906 -5.722656 C 45.203125 -5.042969 44.558594 -4.511719 43.816406 -4.132812 C 43.007812 -3.71875 42.140625 -3.511719 41.21875 -3.511719 C 39.75 -3.511719 38.542969 -4.019531 37.597656 -5.039062 C 36.730469 -5.972656 36.296875 -7.128906 36.296875 -8.503906 C 36.296875 -9.382812 36.4375 -10.179688 36.722656 -10.886719 L 40.472656 -9.386719 L 36.558594 -10.394531 L 37.148438 -12.667969 L 37.203125 -12.828125 C 37.371094 -13.304688 37.453125 -13.765625 37.453125 -14.214844 C 37.453125 -14.519531 37.402344 -14.769531 37.308594 -14.964844 C 37.203125 -15.175781 37.015625 -15.390625 36.746094 -15.601562 C 35.898438 -16.269531 34.34375 -16.6875 32.082031 -16.855469 L 24.003906 -17.449219 L 29.335938 -23.542969 C 29.554688 -23.792969 29.703125 -24.054688 29.777344 -24.335938 C 30.261719 -26.097656 30.796875 -27.398438 31.378906 -28.230469 C 31.949219 -29.046875 32.65625 -29.648438 33.496094 -30.046875 C 34.492188 -30.515625 35.539062 -30.640625 36.636719 -30.421875 L 40.007812 -29.746094 L 39.882812 -26.308594 C 39.882812 -26.332031 39.878906 -26.355469 39.863281 -26.386719 C 39.890625 -26.324219 39.972656 -26.230469 40.101562 -26.109375 C 40.367188 -25.863281 40.921875 -25.738281 41.765625 -25.738281 C 42.835938 -25.738281 43.640625 -25.988281 44.179688 -26.492188 C 44.636719 -26.917969 44.867188 -27.632812 44.867188 -28.636719 C 44.867188 -29.488281 44.523438 -30.230469 43.835938 -30.855469 C 43.042969 -31.582031 41.875 -31.941406 40.335938 -31.941406 Z M 40.335938 -31.941406 "/></g></g><g style="fill:#111827;fill-opacity:1;"><g transform="translate(194.603127, 75.388472)"><path style="stroke:none" d="M 23.058594 -40.359375 C 29.675781 -40.359375 34.628906 -39.195312 37.914062 -36.859375 C 39.707031 -35.585938 41.078125 -34.089844 42.019531 -32.378906 C 43 -30.597656 43.488281 -28.648438 43.488281 -26.527344 C 43.488281 -25.335938 43.359375 -24.214844 43.097656 -23.167969 C 42.617188 -21.054688 41.679688 -19.207031 40.277344 -17.621094 C 38.917969 -16.085938 37.175781 -14.875 35.050781 -13.988281 C 31.449219 -12.492188 27.269531 -11.742188 22.515625 -11.742188 C 20.1875 -11.742188 17.996094 -11.890625 15.945312 -12.191406 L 16.527344 -16.1875 L 20.566406 -16.109375 C 20.554688 -15.457031 20.613281 -14.960938 20.742188 -14.625 C 20.765625 -14.558594 20.789062 -14.515625 20.808594 -14.488281 C 20.808594 -14.488281 20.804688 -14.492188 20.800781 -14.496094 C 21.410156 -14.054688 22.457031 -13.832031 23.941406 -13.832031 C 24.699219 -13.832031 25.414062 -13.917969 26.09375 -14.085938 C 27 -14.316406 28.183594 -14.664062 29.636719 -15.132812 L 30.878906 -11.292969 L 29.523438 -15.09375 C 31.230469 -15.707031 32.546875 -16.011719 33.464844 -16.011719 C 34.101562 -16.011719 34.703125 -15.898438 35.273438 -15.675781 C 35.996094 -15.390625 36.609375 -14.949219 37.109375 -14.359375 C 37.871094 -13.457031 38.253906 -12.367188 38.253906 -11.085938 L 34.214844 -11.085938 L 38.25 -11.203125 C 38.320312 -8.722656 37.488281 -6.246094 35.753906 -3.769531 C 34.144531 -1.472656 31.835938 0.4375 28.835938 1.964844 C 25.859375 3.484375 22.34375 4.242188 18.296875 4.242188 C 12.328125 4.242188 7.371094 2.683594 3.417969 -0.433594 C 1.277344 -2.121094 -0.332031 -4.199219 -1.40625 -6.667969 C -2.4375 -9.03125 -2.949219 -11.707031 -2.949219 -14.691406 C -2.949219 -16.320312 -2.742188 -18.171875 -2.328125 -20.246094 C -0.988281 -26.84375 2.015625 -31.871094 6.679688 -35.316406 C 11.222656 -38.679688 16.683594 -40.359375 23.058594 -40.359375 Z M 23.058594 -32.28125 C 18.460938 -32.28125 14.601562 -31.128906 11.480469 -28.824219 C 8.480469 -26.605469 6.519531 -23.21875 5.59375 -18.660156 C 5.28125 -17.109375 5.128906 -15.785156 5.128906 -14.691406 C 5.128906 -12.828125 5.417969 -11.226562 6 -9.894531 C 6.535156 -8.667969 7.339844 -7.628906 8.417969 -6.777344 C 10.90625 -4.816406 14.199219 -3.835938 18.296875 -3.835938 C 21.050781 -3.835938 23.34375 -4.300781 25.171875 -5.230469 C 26.976562 -6.152344 28.296875 -7.210938 29.136719 -8.40625 C 29.851562 -9.421875 30.195312 -10.277344 30.175781 -10.972656 L 30.175781 -11.085938 C 30.175781 -10.394531 30.429688 -9.746094 30.941406 -9.140625 C 31.320312 -8.699219 31.773438 -8.371094 32.3125 -8.15625 C 32.695312 -8.007812 33.078125 -7.933594 33.464844 -7.933594 C 33.582031 -7.933594 33.671875 -7.9375 33.734375 -7.949219 C 33.6875 -7.941406 33.609375 -7.921875 33.507812 -7.894531 C 33.1875 -7.8125 32.765625 -7.675781 32.238281 -7.488281 L 32.183594 -7.46875 L 32.125 -7.449219 C 30.496094 -6.921875 29.136719 -6.523438 28.050781 -6.25 C 26.730469 -5.921875 25.363281 -5.753906 23.941406 -5.753906 C 20.710938 -5.753906 18.085938 -6.488281 16.0625 -7.953125 C 14.757812 -8.898438 13.804688 -10.15625 13.199219 -11.730469 C 12.695312 -13.050781 12.457031 -14.5625 12.492188 -16.265625 L 12.578125 -20.847656 L 17.113281 -20.183594 C 18.777344 -19.941406 20.578125 -19.820312 22.515625 -19.820312 C 26.195312 -19.820312 29.339844 -20.363281 31.949219 -21.449219 C 32.929688 -21.855469 33.6875 -22.363281 34.222656 -22.96875 C 34.714844 -23.527344 35.058594 -24.246094 35.261719 -25.125 C 35.363281 -25.53125 35.410156 -25.996094 35.410156 -26.527344 C 35.410156 -27.261719 35.257812 -27.914062 34.945312 -28.480469 C 34.59375 -29.117188 34.023438 -29.714844 33.234375 -30.273438 C 32.386719 -30.875 31.191406 -31.347656 29.636719 -31.6875 C 27.839844 -32.085938 25.644531 -32.28125 23.058594 -32.28125 Z M 17.984375 -24.1875 C 17.875 -24.214844 17.777344 -24.234375 17.695312 -24.242188 L 17.6875 -24.242188 C 17.707031 -24.242188 17.726562 -24.242188 17.753906 -24.242188 C 17.949219 -24.242188 18.085938 -24.265625 18.167969 -24.3125 C 18.292969 -24.390625 18.433594 -24.566406 18.589844 -24.839844 C 19.222656 -25.964844 19.527344 -27.25 19.496094 -28.6875 C 19.496094 -28.703125 19.492188 -28.730469 19.488281 -28.769531 L 19.492188 -28.757812 C 19.527344 -28.589844 19.605469 -28.402344 19.722656 -28.195312 C 19.976562 -27.753906 20.332031 -27.390625 20.796875 -27.109375 C 21.3125 -26.792969 21.859375 -26.636719 22.445312 -26.636719 C 23.019531 -26.636719 23.5 -26.769531 23.886719 -27.027344 C 23.910156 -27.046875 23.929688 -27.058594 23.949219 -27.074219 C 23.945312 -27.074219 23.941406 -27.066406 23.933594 -27.058594 C 23.882812 -27.011719 23.820312 -26.945312 23.746094 -26.859375 C 23.34375 -26.390625 22.894531 -25.558594 22.402344 -24.371094 C 21.84375 -23.015625 21.359375 -21.375 20.957031 -19.445312 L 17.003906 -20.269531 Z M 16.023438 -16.351562 L 12.257812 -17.292969 L 13.050781 -21.09375 C 13.554688 -23.519531 14.183594 -25.640625 14.941406 -27.460938 C 15.761719 -29.445312 16.652344 -30.996094 17.609375 -32.113281 C 19.097656 -33.847656 20.710938 -34.714844 22.445312 -34.714844 C 23.371094 -34.714844 24.222656 -34.480469 24.996094 -34.007812 C 25.71875 -33.566406 26.300781 -32.964844 26.734375 -32.203125 C 27.246094 -31.3125 27.523438 -30.195312 27.574219 -28.855469 C 27.632812 -25.941406 26.984375 -23.28125 25.625 -20.871094 C 24.78125 -19.375 23.695312 -18.222656 22.371094 -17.414062 C 21 -16.582031 19.460938 -16.164062 17.753906 -16.164062 C 17.105469 -16.164062 16.527344 -16.226562 16.023438 -16.351562 Z M 16.023438 -16.351562 "/></g></g><g style="fill:#111827;fill-opacity:1;"><g transform="translate(234.052114, 75.388472)"><path style="stroke:none" d="M 36.050781 -40.019531 C 37.6875 -40.019531 39.191406 -39.675781 40.5625 -38.984375 C 41.929688 -38.296875 43.101562 -37.296875 44.082031 -35.984375 C 45.820312 -33.65625 46.6875 -30.664062 46.6875 -27.003906 C 46.6875 -24.191406 46.195312 -21.207031 45.210938 -18.046875 C 43.40625 -12.039062 40.511719 -6.375 36.53125 -1.050781 C 32.53125 4.296875 27.929688 8.597656 22.71875 11.859375 C 17.277344 15.261719 11.792969 16.960938 6.257812 16.960938 C 3.285156 16.960938 0.675781 16.421875 -1.578125 15.339844 C -3.960938 14.199219 -5.796875 12.628906 -7.09375 10.636719 C -8.414062 8.605469 -9.074219 6.421875 -9.074219 4.082031 C -9.074219 3.035156 -8.910156 1.925781 -8.585938 0.753906 L -8.5625 0.675781 L -8.539062 0.601562 C -7.859375 -1.519531 -6.679688 -3.175781 -5 -4.375 C -3.347656 -5.558594 -1.429688 -6.148438 0.75 -6.148438 C 4 -6.148438 6.695312 -5.007812 8.832031 -2.726562 C 10.746094 -0.683594 11.945312 2.007812 12.429688 5.335938 L 8.433594 5.917969 L 8.246094 1.882812 C 10.136719 1.792969 11.941406 0.921875 13.660156 -0.734375 L 16.460938 2.175781 L 15.757812 6.152344 C 12.582031 5.59375 10.132812 4.417969 8.414062 2.628906 C 6.722656 0.871094 5.609375 -1.644531 5.0625 -4.914062 L 2.339844 -21.589844 C 2.300781 -21.832031 2.265625 -22.003906 2.234375 -22.105469 C 2.269531 -21.988281 2.355469 -21.839844 2.492188 -21.65625 C 2.738281 -21.316406 3.0625 -21.042969 3.457031 -20.839844 C 3.875 -20.625 4.308594 -20.515625 4.761719 -20.515625 C 5.148438 -20.515625 5.503906 -20.582031 5.820312 -20.71875 C 5.925781 -20.761719 5.996094 -20.796875 6.035156 -20.828125 C 4.890625 -19.984375 3.785156 -19.5625 2.722656 -19.5625 C 1.773438 -19.5625 0.914062 -19.835938 0.148438 -20.378906 C -0.5 -20.835938 -0.996094 -21.433594 -1.34375 -22.171875 C -1.6875 -22.910156 -1.863281 -23.773438 -1.863281 -24.757812 C -1.863281 -25.804688 -1.6875 -26.886719 -1.339844 -28.003906 C -0.273438 -31.371094 1.683594 -34.207031 4.539062 -36.507812 C 7.5 -38.894531 10.929688 -40.089844 14.828125 -40.089844 C 19.023438 -40.089844 22.214844 -38.722656 24.40625 -35.992188 C 26.277344 -33.664062 27.460938 -30.320312 27.957031 -25.964844 L 29.984375 -11.089844 L 29.984375 -11.03125 C 29.921875 -11.222656 29.816406 -11.421875 29.667969 -11.628906 C 29.398438 -12.003906 29.046875 -12.304688 28.613281 -12.53125 C 28.164062 -12.765625 27.695312 -12.882812 27.207031 -12.882812 C 26.875 -12.882812 26.566406 -12.824219 26.292969 -12.710938 C 26.183594 -12.664062 26.105469 -12.625 26.0625 -12.589844 C 26.242188 -12.730469 26.492188 -13.015625 26.816406 -13.453125 C 27.6875 -14.632812 28.578125 -16.410156 29.488281 -18.789062 L 33.261719 -17.34375 L 30.558594 -14.34375 C 28.785156 -15.941406 27.417969 -17.789062 26.460938 -19.882812 C 25.488281 -22.003906 25.003906 -24.261719 25.003906 -26.664062 C 25.003906 -28.488281 25.25 -30.167969 25.742188 -31.703125 C 26.511719 -34.269531 27.800781 -36.28125 29.609375 -37.734375 C 31.503906 -39.257812 33.652344 -40.019531 36.050781 -40.019531 Z M 36.050781 -31.941406 C 35.546875 -31.941406 35.085938 -31.773438 34.667969 -31.441406 C 34.164062 -31.035156 33.753906 -30.300781 33.433594 -29.242188 C 33.199219 -28.507812 33.082031 -27.648438 33.082031 -26.664062 C 33.082031 -25.4375 33.324219 -24.296875 33.804688 -23.242188 C 34.300781 -22.164062 35.019531 -21.199219 35.964844 -20.347656 L 38.027344 -18.492188 L 37.03125 -15.898438 C 35.859375 -12.835938 34.621094 -10.421875 33.3125 -8.652344 C 31.417969 -6.085938 29.382812 -4.804688 27.207031 -4.804688 C 26.378906 -4.804688 25.601562 -4.992188 24.882812 -5.367188 C 24.179688 -5.734375 23.589844 -6.246094 23.113281 -6.90625 C 22.503906 -7.753906 22.125 -8.785156 21.980469 -9.996094 L 19.929688 -25.050781 C 19.609375 -27.859375 19 -29.820312 18.105469 -30.9375 C 17.53125 -31.652344 16.4375 -32.011719 14.828125 -32.011719 C 12.832031 -32.011719 11.089844 -31.414062 9.609375 -30.21875 C 8.019531 -28.9375 6.941406 -27.398438 6.371094 -25.59375 C 6.269531 -25.261719 6.214844 -24.984375 6.214844 -24.757812 C 6.210938 -24.792969 6.207031 -24.832031 6.199219 -24.878906 C 6.164062 -25.113281 6.085938 -25.359375 5.96875 -25.613281 C 5.710938 -26.15625 5.328125 -26.609375 4.816406 -26.972656 C 4.1875 -27.417969 3.488281 -27.640625 2.722656 -27.640625 C 2.15625 -27.640625 1.65625 -27.53125 1.226562 -27.308594 C 1.191406 -27.289062 1.164062 -27.273438 1.148438 -27.261719 C 1.171875 -27.277344 1.203125 -27.300781 1.242188 -27.332031 C 2.386719 -28.171875 3.558594 -28.59375 4.761719 -28.59375 C 5.621094 -28.59375 6.421875 -28.402344 7.167969 -28.015625 C 7.894531 -27.640625 8.507812 -27.113281 9.003906 -26.433594 C 9.640625 -25.566406 10.078125 -24.386719 10.3125 -22.894531 L 13.03125 -6.242188 C 13.300781 -4.613281 13.703125 -3.523438 14.238281 -2.96875 C 14.738281 -2.445312 15.714844 -2.054688 17.164062 -1.800781 L 24.980469 -0.421875 L 19.261719 5.085938 C 16.082031 8.148438 12.539062 9.769531 8.625 9.953125 L 4.964844 10.125 L 4.4375 6.5 C 4.195312 4.839844 3.695312 3.605469 2.9375 2.792969 C 2.394531 2.21875 1.667969 1.929688 0.75 1.929688 C 0.296875 1.929688 -0.0546875 2.019531 -0.304688 2.199219 C -0.53125 2.359375 -0.710938 2.652344 -0.847656 3.074219 L -4.691406 1.835938 L -0.800781 2.917969 C -0.929688 3.378906 -0.996094 3.769531 -0.996094 4.082031 C -0.996094 4.824219 -0.769531 5.542969 -0.320312 6.234375 C 0.152344 6.960938 0.898438 7.570312 1.917969 8.058594 C 3.066406 8.609375 4.511719 8.882812 6.257812 8.882812 C 10.246094 8.882812 14.304688 7.59375 18.433594 5.011719 C 22.789062 2.285156 26.667969 -1.347656 30.0625 -5.886719 C 33.472656 -10.449219 35.949219 -15.304688 37.5 -20.449219 C 38.238281 -22.824219 38.609375 -25.011719 38.609375 -27.003906 C 38.609375 -28.875 38.277344 -30.257812 37.609375 -31.152344 C 37.386719 -31.449219 37.160156 -31.652344 36.929688 -31.769531 C 36.699219 -31.886719 36.40625 -31.941406 36.050781 -31.941406 Z M 36.050781 -31.941406 "/></g></g><g style="fill:#111827;fill-opacity:1;"><g transform="translate(276.221643, 75.388472)"><path style="stroke:none" d="M 8.09375 -17.777344 C 11.007812 -17.777344 13.484375 -16.78125 15.515625 -14.785156 C 17.570312 -12.769531 18.59375 -10.3125 18.59375 -7.414062 C 18.59375 -5.488281 18.097656 -3.632812 17.097656 -1.839844 C 16.113281 -0.078125 14.761719 1.359375 13.042969 2.472656 C 11.21875 3.652344 9.183594 4.242188 6.9375 4.242188 C 4.054688 4.242188 1.605469 3.238281 -0.40625 1.222656 C -2.390625 -0.761719 -3.421875 -3.175781 -3.492188 -6.019531 L -3.496094 -6.070312 L -3.496094 -6.121094 C -3.496094 -8.023438 -3.015625 -9.863281 -2.058594 -11.640625 C -1.097656 -13.429688 0.253906 -14.886719 1.988281 -16.007812 C 3.8125 -17.1875 5.847656 -17.777344 8.09375 -17.777344 Z M 8.09375 -9.699219 C 7.4375 -9.699219 6.867188 -9.542969 6.378906 -9.226562 C 5.800781 -8.855469 5.359375 -8.382812 5.050781 -7.8125 C 4.738281 -7.230469 4.582031 -6.667969 4.582031 -6.121094 L 0.542969 -6.121094 L 4.582031 -6.226562 C 4.601562 -5.53125 4.839844 -4.953125 5.304688 -4.488281 C 5.742188 -4.054688 6.285156 -3.835938 6.9375 -3.835938 C 7.59375 -3.835938 8.167969 -3.992188 8.65625 -4.308594 C 9.25 -4.695312 9.710938 -5.183594 10.042969 -5.777344 C 10.359375 -6.34375 10.515625 -6.890625 10.515625 -7.414062 C 10.515625 -8.050781 10.296875 -8.589844 9.855469 -9.019531 C 9.394531 -9.472656 8.808594 -9.699219 8.09375 -9.699219 Z M 8.09375 -9.699219 "/></g></g><g style="fill:#111827;fill-opacity:1;"><g transform="translate(296.422201, 75.388472)"><path style="stroke:none" d="M 24.28125 -40.019531 C 30.261719 -40.019531 35.136719 -38.859375 38.917969 -36.53125 C 41.101562 -35.183594 42.757812 -33.453125 43.882812 -31.34375 C 44.980469 -29.28125 45.53125 -26.929688 45.53125 -24.28125 C 45.53125 -22.410156 45.207031 -20.339844 44.558594 -18.070312 L 41.757812 -8.644531 L 37.886719 -9.792969 L 41.804688 -8.816406 C 41.839844 -8.957031 41.859375 -9.054688 41.859375 -9.113281 C 41.859375 -9.707031 41.628906 -10.285156 41.175781 -10.84375 C 40.816406 -11.289062 40.375 -11.617188 39.847656 -11.832031 C 39.46875 -11.988281 39.085938 -12.066406 38.703125 -12.066406 C 38.324219 -12.066406 37.964844 -11.976562 37.617188 -11.800781 C 37.34375 -11.660156 37.125 -11.488281 36.957031 -11.28125 C 37.277344 -11.675781 37.578125 -12.003906 37.859375 -12.257812 C 38.761719 -13.082031 39.765625 -13.492188 40.878906 -13.492188 C 41.957031 -13.492188 42.917969 -13.148438 43.761719 -12.453125 C 44.300781 -12.011719 44.734375 -11.453125 45.070312 -10.785156 C 45.511719 -9.898438 45.734375 -8.933594 45.734375 -7.890625 L 41.695312 -7.890625 L 45.730469 -8.039062 C 45.8125 -5.84375 45.070312 -3.730469 43.503906 -1.6875 C 42.152344 0.0703125 40.382812 1.5 38.195312 2.59375 C 35.996094 3.691406 33.601562 4.242188 31.015625 4.242188 C 28.007812 4.242188 25.375 3.664062 23.117188 2.503906 C 20.519531 1.167969 18.71875 -0.820312 17.714844 -3.46875 L 21.492188 -4.898438 L 24.597656 -2.3125 C 22.859375 -0.226562 20.792969 1.386719 18.398438 2.523438 C 15.992188 3.671875 13.417969 4.242188 10.679688 4.242188 C 7.5625 4.242188 4.878906 3.601562 2.625 2.320312 C 0.324219 1.007812 -1.410156 -0.726562 -2.570312 -2.878906 C -3.683594 -4.953125 -4.242188 -7.144531 -4.242188 -9.453125 C -4.242188 -10.445312 -4.148438 -11.414062 -3.960938 -12.355469 L -3.949219 -12.414062 L -3.933594 -12.476562 C -2.964844 -16.65625 -0.816406 -19.839844 2.515625 -22.015625 C 5.613281 -24.042969 9.242188 -25.058594 13.398438 -25.058594 C 17.589844 -25.058594 21.703125 -24.402344 25.734375 -23.089844 L 24.488281 -19.25 L 20.710938 -20.679688 L 22.410156 -25.167969 L 26.1875 -23.738281 L 22.328125 -24.933594 C 22.796875 -26.449219 23.03125 -27.523438 23.03125 -28.160156 L 27.070312 -28.160156 L 23.035156 -27.992188 C 23.035156 -28.035156 23.03125 -28.0625 23.027344 -28.078125 C 23.035156 -28.042969 23.050781 -28 23.074219 -27.949219 C 23.160156 -27.757812 23.289062 -27.59375 23.460938 -27.453125 C 23.535156 -27.394531 23.609375 -27.347656 23.675781 -27.316406 L 23.671875 -27.3125 C 23.484375 -27.363281 23.210938 -27.386719 22.855469 -27.386719 L 22.855469 -31.425781 L 26.636719 -32.84375 C 27.078125 -31.660156 27.300781 -30.4375 27.300781 -29.179688 C 27.300781 -26.359375 26.253906 -23.9375 24.160156 -21.917969 C 22.109375 -19.941406 19.359375 -18.953125 15.917969 -18.953125 C 12.765625 -18.953125 10.203125 -19.722656 8.226562 -21.269531 C 7.136719 -22.121094 6.300781 -23.113281 5.71875 -24.246094 C 5.109375 -25.433594 4.804688 -26.714844 4.804688 -28.09375 C 4.804688 -30.050781 5.351562 -31.839844 6.445312 -33.460938 C 7.421875 -34.910156 8.808594 -36.160156 10.601562 -37.21875 C 13.773438 -39.085938 18.332031 -40.019531 24.28125 -40.019531 Z M 24.28125 -31.941406 C 19.800781 -31.941406 16.609375 -31.382812 14.703125 -30.257812 C 13.957031 -29.820312 13.4375 -29.382812 13.144531 -28.945312 C 12.96875 -28.6875 12.882812 -28.402344 12.882812 -28.09375 C 12.882812 -28.019531 12.886719 -27.96875 12.902344 -27.941406 C 12.945312 -27.859375 13.042969 -27.757812 13.199219 -27.636719 C 13.71875 -27.230469 14.621094 -27.03125 15.917969 -27.03125 C 17.1875 -27.03125 18.066406 -27.265625 18.554688 -27.734375 C 19 -28.164062 19.222656 -28.648438 19.222656 -29.179688 C 19.222656 -29.460938 19.171875 -29.738281 19.074219 -30.007812 L 17.027344 -35.464844 L 22.855469 -35.464844 C 25.203125 -35.464844 27.089844 -34.898438 28.507812 -33.761719 C 30.144531 -32.453125 31.011719 -30.640625 31.105469 -28.328125 L 31.109375 -28.242188 L 31.109375 -28.160156 C 31.109375 -26.710938 30.753906 -24.839844 30.046875 -22.542969 L 30.007812 -22.425781 L 26.898438 -14.21875 L 23.238281 -15.40625 C 20.015625 -16.457031 16.738281 -16.980469 13.398438 -16.980469 C 10.847656 -16.980469 8.691406 -16.40625 6.9375 -15.257812 C 5.417969 -14.261719 4.414062 -12.726562 3.933594 -10.652344 L 0 -11.5625 L 3.960938 -10.769531 C 3.875 -10.351562 3.835938 -9.914062 3.835938 -9.453125 C 3.835938 -8.5 4.070312 -7.585938 4.542969 -6.710938 C 4.96875 -5.917969 5.664062 -5.246094 6.625 -4.699219 C 7.636719 -4.125 8.988281 -3.835938 10.679688 -3.835938 C 12.203125 -3.835938 13.621094 -4.148438 14.929688 -4.769531 C 16.253906 -5.398438 17.410156 -6.304688 18.390625 -7.484375 L 22.820312 -12.800781 L 25.273438 -6.328125 C 25.539062 -5.617188 26.050781 -5.070312 26.808594 -4.679688 C 27.90625 -4.117188 29.308594 -3.835938 31.015625 -3.835938 C 32.332031 -3.835938 33.519531 -4.101562 34.582031 -4.632812 C 35.664062 -5.171875 36.5 -5.832031 37.097656 -6.609375 C 37.480469 -7.109375 37.667969 -7.484375 37.660156 -7.742188 L 37.65625 -7.816406 L 37.65625 -7.890625 C 37.65625 -7.664062 37.71875 -7.421875 37.84375 -7.171875 C 38.019531 -6.820312 38.28125 -6.5 38.625 -6.21875 C 39.277344 -5.683594 40.027344 -5.414062 40.878906 -5.414062 C 41.589844 -5.414062 42.242188 -5.59375 42.832031 -5.945312 C 43.015625 -6.054688 43.171875 -6.171875 43.304688 -6.292969 C 43.328125 -6.3125 43.347656 -6.332031 43.363281 -6.347656 L 43.359375 -6.34375 C 43.328125 -6.308594 43.285156 -6.261719 43.238281 -6.199219 C 42.683594 -5.519531 42.039062 -4.988281 41.300781 -4.609375 C 40.492188 -4.195312 39.625 -3.988281 38.703125 -3.988281 C 38.023438 -3.988281 37.382812 -4.109375 36.78125 -4.359375 C 36.039062 -4.664062 35.410156 -5.128906 34.90625 -5.75 C 34.15625 -6.675781 33.78125 -7.796875 33.78125 -9.113281 C 33.78125 -9.71875 33.84375 -10.269531 33.96875 -10.773438 L 33.988281 -10.859375 L 36.792969 -20.289062 C 37.230469 -21.832031 37.453125 -23.164062 37.453125 -24.28125 C 37.453125 -25.582031 37.21875 -26.671875 36.753906 -27.542969 C 36.316406 -28.367188 35.625 -29.070312 34.679688 -29.652344 C 32.199219 -31.179688 28.734375 -31.941406 24.28125 -31.941406 Z M 20.472656 -11.332031 C 20.4375 -11.332031 20.414062 -11.332031 20.402344 -11.328125 C 20.421875 -11.332031 20.445312 -11.34375 20.472656 -11.355469 C 20.5 -11.367188 20.523438 -11.382812 20.542969 -11.398438 C 20.539062 -11.394531 20.527344 -11.382812 20.511719 -11.359375 C 20.320312 -11.128906 20.226562 -10.921875 20.226562 -10.746094 C 20.222656 -10.785156 20.210938 -10.832031 20.195312 -10.878906 C 20.144531 -11.058594 20.054688 -11.234375 19.929688 -11.402344 C 19.695312 -11.714844 19.390625 -11.957031 19.023438 -12.128906 C 18.726562 -12.269531 18.4375 -12.335938 18.160156 -12.335938 C 17.976562 -12.335938 17.820312 -12.3125 17.691406 -12.265625 L 17.691406 -12.269531 C 17.734375 -12.289062 17.78125 -12.320312 17.835938 -12.355469 C 17.785156 -12.324219 17.75 -12.289062 17.722656 -12.253906 C 17.742188 -12.28125 17.769531 -12.339844 17.796875 -12.433594 L 19.253906 -16.523438 L 23.058594 -15.167969 L 22.355469 -11.191406 C 21.816406 -11.285156 21.191406 -11.332031 20.472656 -11.332031 Z M 20.472656 -19.410156 C 21.660156 -19.410156 22.757812 -19.324219 23.761719 -19.144531 L 28.464844 -18.316406 L 25.460938 -9.878906 C 24.855469 -8.058594 23.824219 -6.65625 22.363281 -5.667969 C 20.976562 -4.730469 19.578125 -4.257812 18.160156 -4.257812 C 17.25 -4.257812 16.398438 -4.441406 15.617188 -4.804688 C 14.757812 -5.203125 14.042969 -5.789062 13.46875 -6.554688 C 12.589844 -7.726562 12.148438 -9.125 12.148438 -10.746094 C 12.148438 -12.839844 12.847656 -14.742188 14.246094 -16.460938 C 15.027344 -17.421875 15.953125 -18.152344 17.023438 -18.660156 C 18.085938 -19.160156 19.234375 -19.410156 20.472656 -19.410156 Z M 20.472656 -19.410156 "/></g></g><g style="fill:#111827;fill-opacity:1;"><g transform="translate(340.904215, 75.388472)"><path style="stroke:none" d="M 17.890625 -40.019531 C 21.476562 -40.019531 24.253906 -39.21875 26.222656 -37.617188 C 27.328125 -36.714844 28.164062 -35.636719 28.730469 -34.375 C 29.273438 -33.167969 29.546875 -31.84375 29.546875 -30.40625 C 29.546875 -28.925781 29.320312 -27.5 28.863281 -26.132812 L 25.03125 -27.410156 L 28.890625 -26.222656 L 22.632812 -5.886719 L 18.773438 -7.074219 L 22.691406 -6.09375 C 22.636719 -5.871094 22.609375 -5.722656 22.609375 -5.644531 C 22.609375 -5.675781 22.597656 -5.730469 22.578125 -5.8125 C 22.523438 -6.039062 22.417969 -6.265625 22.269531 -6.492188 C 22.25 -6.523438 22.234375 -6.542969 22.222656 -6.554688 C 22.25 -6.527344 22.289062 -6.496094 22.339844 -6.453125 L 22.539062 -6.296875 L 22.71875 -6.121094 C 23.222656 -5.613281 23.617188 -5.148438 23.902344 -4.722656 C 24.351562 -4.046875 24.613281 -3.300781 24.683594 -2.484375 C 24.738281 -1.859375 24.675781 -1.226562 24.492188 -0.589844 L 24.445312 -0.417969 L 24.378906 -0.25 C 23.730469 1.4375 22.519531 2.632812 20.75 3.34375 C 19.585938 3.808594 18.042969 4.039062 16.121094 4.039062 L 0.613281 4.039062 C -1.425781 4.039062 -3.0625 3.597656 -4.308594 2.71875 C -5.273438 2.03125 -5.945312 1.160156 -6.324219 0.101562 C -6.703125 -0.964844 -6.726562 -2.070312 -6.398438 -3.21875 L -6.375 -3.300781 L -6.347656 -3.386719 C -5.824219 -4.953125 -4.703125 -6.195312 -2.976562 -7.105469 C -2.714844 -7.246094 -2.515625 -7.394531 -2.375 -7.546875 C -2.410156 -7.507812 -2.433594 -7.480469 -2.449219 -7.457031 C -2.433594 -7.480469 -2.414062 -7.515625 -2.390625 -7.5625 C -2.296875 -7.753906 -2.203125 -8.015625 -2.109375 -8.339844 L 3.835938 -28.089844 L 3.855469 -28.144531 C 3.863281 -28.175781 3.871094 -28.203125 3.878906 -28.222656 C 3.859375 -28.128906 3.851562 -28.019531 3.851562 -27.886719 C 3.851562 -27.472656 4.015625 -27.046875 4.347656 -26.617188 C 4.386719 -26.566406 4.410156 -26.539062 4.421875 -26.527344 C 4.375 -26.570312 4.304688 -26.625 4.214844 -26.6875 L 4.109375 -26.761719 L 4.007812 -26.84375 C 3.226562 -27.464844 2.628906 -28.089844 2.21875 -28.707031 C 1.722656 -29.445312 1.449219 -30.269531 1.394531 -31.171875 C 1.351562 -31.835938 1.433594 -32.507812 1.640625 -33.199219 L 5.507812 -32.035156 L 1.601562 -33.054688 C 2.003906 -34.59375 3.003906 -35.878906 4.601562 -36.90625 C 5.625 -37.566406 6.960938 -38.148438 8.609375 -38.652344 C 11.582031 -39.566406 14.671875 -40.019531 17.890625 -40.019531 Z M 17.890625 -31.941406 C 15.480469 -31.941406 13.179688 -31.605469 10.980469 -30.929688 C 10.042969 -30.640625 9.371094 -30.367188 8.96875 -30.109375 C 8.929688 -30.085938 8.902344 -30.066406 8.890625 -30.054688 C 8.914062 -30.074219 8.945312 -30.109375 8.980469 -30.148438 C 9.183594 -30.378906 9.328125 -30.667969 9.417969 -31.015625 L 9.378906 -30.875 C 9.449219 -31.109375 9.472656 -31.378906 9.457031 -31.675781 C 9.421875 -32.21875 9.25 -32.722656 8.9375 -33.1875 C 8.882812 -33.273438 8.835938 -33.332031 8.808594 -33.363281 C 8.859375 -33.308594 8.941406 -33.238281 9.054688 -33.148438 L 6.53125 -29.996094 L 8.847656 -33.304688 C 9.636719 -32.75 10.273438 -32.164062 10.75 -31.539062 C 11.535156 -30.519531 11.929688 -29.300781 11.929688 -27.886719 C 11.929688 -27.179688 11.792969 -26.414062 11.519531 -25.589844 L 7.6875 -26.867188 L 11.554688 -25.703125 L 5.644531 -6.078125 C 5.15625 -4.394531 4.472656 -3.070312 3.601562 -2.113281 C 2.832031 -1.269531 1.902344 -0.554688 0.800781 0.03125 C 0.761719 0.0546875 0.738281 0.0664062 0.726562 0.078125 C 0.753906 0.0546875 0.789062 0.0234375 0.832031 -0.0195312 C 1.042969 -0.230469 1.203125 -0.5 1.316406 -0.832031 L -2.515625 -2.109375 L 1.367188 -1 C 1.511719 -1.511719 1.488281 -2.046875 1.289062 -2.601562 C 1.09375 -3.152344 0.785156 -3.574219 0.363281 -3.875 C 0.191406 -3.992188 0.0585938 -4.066406 -0.0351562 -4.085938 C 0.105469 -4.054688 0.320312 -4.039062 0.613281 -4.039062 L 16.121094 -4.039062 C 16.648438 -4.039062 17.085938 -4.0625 17.433594 -4.105469 C 17.558594 -4.125 17.660156 -4.140625 17.742188 -4.160156 L 17.75 -4.160156 C 17.609375 -4.101562 17.464844 -4.003906 17.316406 -3.863281 C 17.105469 -3.660156 16.945312 -3.421875 16.839844 -3.152344 L 20.609375 -1.699219 L 16.726562 -2.808594 C 16.636719 -2.492188 16.605469 -2.148438 16.636719 -1.785156 C 16.683594 -1.226562 16.867188 -0.714844 17.179688 -0.242188 C 17.203125 -0.210938 17.222656 -0.183594 17.238281 -0.160156 C 17.238281 -0.164062 17.230469 -0.167969 17.222656 -0.179688 C 17.171875 -0.242188 17.097656 -0.316406 17.003906 -0.410156 L 19.863281 -3.265625 L 17.382812 -0.078125 C 16.628906 -0.664062 16.019531 -1.308594 15.546875 -2.011719 C 14.871094 -3.027344 14.53125 -4.242188 14.53125 -5.644531 C 14.53125 -6.386719 14.636719 -7.1875 14.855469 -8.054688 L 14.882812 -8.160156 L 21.183594 -28.644531 L 21.199219 -28.6875 C 21.378906 -29.226562 21.46875 -29.796875 21.46875 -30.40625 C 21.46875 -30.6875 21.433594 -30.90625 21.363281 -31.058594 C 21.320312 -31.160156 21.238281 -31.257812 21.121094 -31.355469 C 20.964844 -31.480469 20.6875 -31.597656 20.296875 -31.699219 C 19.664062 -31.859375 18.859375 -31.941406 17.890625 -31.941406 Z M 22.445312 -55.054688 C 25.316406 -55.054688 27.730469 -54.089844 29.695312 -52.164062 C 31.683594 -50.214844 32.675781 -47.835938 32.675781 -45.027344 C 32.675781 -43.167969 32.207031 -41.371094 31.273438 -39.640625 C 30.324219 -37.886719 29 -36.472656 27.292969 -35.390625 C 25.523438 -34.273438 23.566406 -33.710938 21.425781 -33.710938 C 18.585938 -33.710938 16.195312 -34.683594 14.25 -36.628906 C 12.335938 -38.542969 11.339844 -40.902344 11.265625 -43.699219 L 11.265625 -43.804688 C 11.265625 -45.609375 11.71875 -47.363281 12.621094 -49.0625 C 13.527344 -50.777344 14.808594 -52.183594 16.464844 -53.285156 C 18.230469 -54.464844 20.226562 -55.054688 22.445312 -55.054688 Z M 22.445312 -46.976562 C 21.855469 -46.976562 21.355469 -46.839844 20.945312 -46.566406 C 20.421875 -46.21875 20.027344 -45.789062 19.757812 -45.277344 C 19.480469 -44.757812 19.34375 -44.269531 19.34375 -43.804688 L 15.304688 -43.804688 L 19.34375 -43.910156 C 19.359375 -43.261719 19.566406 -42.738281 19.960938 -42.339844 C 20.332031 -41.972656 20.816406 -41.789062 21.425781 -41.789062 C 22.007812 -41.789062 22.523438 -41.933594 22.972656 -42.21875 C 23.488281 -42.542969 23.886719 -42.964844 24.164062 -43.480469 C 24.453125 -44.011719 24.597656 -44.53125 24.597656 -45.027344 C 24.597656 -45.574219 24.410156 -46.03125 24.039062 -46.394531 C 23.644531 -46.78125 23.113281 -46.976562 22.445312 -46.976562 Z M 22.445312 -46.976562 "/></g></g><g style="fill:#111827;fill-opacity:1;"><g transform="translate(365.802991, 75.388472)"><path style="stroke:none" d=""/></g></g><g style="fill:#ffffff;fill-opacity:1;"><g transform="translate(9.193286, 75.388472)"><path style="stroke:none" d="M 25.4375 -45.703125 C 27.976562 -45.703125 30.320312 -45.394531 32.46875 -44.78125 C 34.625 -44.175781 36.816406 -43.210938 39.046875 -41.890625 L 40.609375 -43.1875 C 41.691406 -44.050781 42.582031 -44.640625 43.28125 -44.953125 C 43.988281 -45.273438 44.796875 -45.4375 45.703125 -45.4375 C 46.796875 -45.4375 47.660156 -45.195312 48.296875 -44.71875 C 48.929688 -44.238281 49.25 -43.546875 49.25 -42.640625 C 49.25 -42.285156 49.179688 -41.898438 49.046875 -41.484375 L 46.1875 -32.109375 C 45.863281 -31.015625 45.460938 -30.238281 44.984375 -29.78125 C 44.515625 -29.332031 43.800781 -29.109375 42.84375 -29.109375 C 41.851562 -29.109375 40.984375 -29.414062 40.234375 -30.03125 C 39.484375 -30.644531 38.316406 -31.898438 36.734375 -33.796875 C 35.140625 -35.617188 33.695312 -36.898438 32.40625 -37.640625 C 31.113281 -38.390625 29.789062 -38.765625 28.4375 -38.765625 C 27.4375 -38.765625 26.59375 -38.4375 25.90625 -37.78125 C 25.226562 -37.125 24.890625 -36.320312 24.890625 -35.375 C 24.890625 -34.28125 25.429688 -33.269531 26.515625 -32.34375 C 27.609375 -31.414062 29.3125 -30.25 31.625 -28.84375 C 33.976562 -27.4375 35.925781 -26.164062 37.46875 -25.03125 C 39.019531 -23.894531 40.335938 -22.488281 41.421875 -20.8125 C 42.503906 -19.132812 43.046875 -17.207031 43.046875 -15.03125 C 43.046875 -13.625 42.820312 -12.21875 42.375 -10.8125 C 41.28125 -7.1875 39.171875 -4.429688 36.046875 -2.546875 C 32.921875 -0.671875 29.269531 0.265625 25.09375 0.265625 C 21.96875 0.265625 19.335938 -0.09375 17.203125 -0.8125 C 15.078125 -1.539062 12.898438 -2.765625 10.671875 -4.484375 L 8.234375 -2.453125 C 7.097656 -1.492188 6.164062 -0.84375 5.4375 -0.5 C 4.71875 -0.164062 3.90625 0 3 0 C 1.945312 0 1.113281 -0.25 0.5 -0.75 C -0.101562 -1.25 -0.40625 -1.925781 -0.40625 -2.78125 C -0.40625 -3.238281 -0.316406 -3.71875 -0.140625 -4.21875 L 3.203125 -14.34375 C 3.554688 -15.53125 4.050781 -16.367188 4.6875 -16.859375 C 5.320312 -17.359375 6.140625 -17.609375 7.140625 -17.609375 C 8.179688 -17.609375 9.117188 -17.242188 9.953125 -16.515625 C 10.796875 -15.796875 11.898438 -14.484375 13.265625 -12.578125 C 14.710938 -10.492188 16.0625 -9.039062 17.3125 -8.21875 C 18.5625 -7.40625 20.046875 -7 21.765625 -7 C 22.984375 -7 23.921875 -7.191406 24.578125 -7.578125 C 25.242188 -7.960938 25.710938 -8.585938 25.984375 -9.453125 C 26.078125 -9.679688 26.125 -10.019531 26.125 -10.46875 C 26.125 -11.5625 25.597656 -12.5625 24.546875 -13.46875 C 23.503906 -14.375 21.894531 -15.460938 19.71875 -16.734375 C 17.40625 -18.140625 15.523438 -19.394531 14.078125 -20.5 C 12.628906 -21.613281 11.367188 -23.007812 10.296875 -24.6875 C 9.234375 -26.363281 8.703125 -28.335938 8.703125 -30.609375 C 8.703125 -32.191406 8.953125 -33.753906 9.453125 -35.296875 C 10.398438 -38.429688 12.347656 -40.945312 15.296875 -42.84375 C 18.242188 -44.75 21.625 -45.703125 25.4375 -45.703125 Z M 25.4375 -45.703125 "/></g></g><g style="fill:#ffffff;fill-opacity:1;"><g transform="translate(56.055859, 75.388472)"><path style="stroke:none" d="M 30.40625 -35.09375 C 31.257812 -35.09375 31.925781 -34.910156 32.40625 -34.546875 C 32.882812 -34.179688 33.125 -33.6875 33.125 -33.0625 C 33.125 -32.875 33.078125 -32.554688 32.984375 -32.109375 C 32.398438 -30.109375 31.039062 -29.109375 28.90625 -29.109375 L 24.96875 -29.109375 L 19.859375 -12.3125 C 19.628906 -11.632812 19.515625 -10.929688 19.515625 -10.203125 C 19.515625 -9.390625 19.738281 -8.820312 20.1875 -8.5 C 20.644531 -8.1875 21.285156 -8.03125 22.109375 -8.03125 C 22.828125 -8.03125 23.734375 -8.117188 24.828125 -8.296875 C 25.367188 -8.429688 25.84375 -8.5 26.25 -8.5 C 26.570312 -8.5 26.8125 -8.394531 26.96875 -8.1875 C 27.125 -7.988281 27.203125 -7.726562 27.203125 -7.40625 C 27.253906 -6.5 26.585938 -5.398438 25.203125 -4.109375 C 23.816406 -2.816406 21.941406 -1.707031 19.578125 -0.78125 C 17.222656 0.144531 14.617188 0.609375 11.765625 0.609375 C 8.679688 0.609375 6.207031 -0.09375 4.34375 -1.5 C 2.488281 -2.90625 1.5625 -4.832031 1.5625 -7.28125 C 1.5625 -8.414062 1.742188 -9.503906 2.109375 -10.546875 L 6.46875 -24.015625 C 6.6875 -24.785156 6.796875 -25.394531 6.796875 -25.84375 C 6.796875 -26.75 6.582031 -27.519531 6.15625 -28.15625 C 5.726562 -28.789062 5.128906 -29.445312 4.359375 -30.125 C 3.671875 -30.757812 3.191406 -31.289062 2.921875 -31.71875 C 2.648438 -32.15625 2.582031 -32.671875 2.71875 -33.265625 C 2.90625 -33.847656 3.289062 -34.296875 3.875 -34.609375 C 4.46875 -34.929688 5.398438 -35.09375 6.671875 -35.09375 L 10.46875 -35.09375 L 14.765625 -39.375 C 16.253906 -40.875 17.625 -41.914062 18.875 -42.5 C 20.125 -43.09375 21.742188 -43.390625 23.734375 -43.390625 C 26.585938 -43.390625 28.015625 -42.300781 28.015625 -40.125 C 28.015625 -39.445312 27.925781 -38.8125 27.75 -38.21875 L 26.796875 -35.09375 Z M 30.40625 -35.09375 "/></g></g><g style="fill:#ffffff;fill-opacity:1;"><g transform="translate(85.302458, 75.388472)"><path style="stroke:none" d="M 17.890625 -35.984375 C 20.515625 -35.984375 22.4375 -35.484375 23.65625 -34.484375 C 24.882812 -33.484375 25.5 -32.125 25.5 -30.40625 C 25.5 -29.363281 25.34375 -28.363281 25.03125 -27.40625 L 18.765625 -7.078125 C 18.628906 -6.523438 18.5625 -6.046875 18.5625 -5.640625 C 18.5625 -5.054688 18.675781 -4.59375 18.90625 -4.25 C 19.132812 -3.90625 19.453125 -3.578125 19.859375 -3.265625 C 20.171875 -2.941406 20.394531 -2.675781 20.53125 -2.46875 C 20.675781 -2.269531 20.703125 -2.015625 20.609375 -1.703125 C 20.378906 -1.109375 19.925781 -0.675781 19.25 -0.40625 C 18.570312 -0.132812 17.53125 0 16.125 0 L 0.609375 0 C -0.566406 0 -1.425781 -0.191406 -1.96875 -0.578125 C -2.519531 -0.960938 -2.703125 -1.472656 -2.515625 -2.109375 C -2.335938 -2.648438 -1.863281 -3.125 -1.09375 -3.53125 C -0.40625 -3.894531 0.160156 -4.328125 0.609375 -4.828125 C 1.066406 -5.328125 1.453125 -6.117188 1.765625 -7.203125 L 7.6875 -26.859375 C 7.820312 -27.273438 7.890625 -27.617188 7.890625 -27.890625 C 7.890625 -28.390625 7.773438 -28.785156 7.546875 -29.078125 C 7.316406 -29.367188 6.976562 -29.675781 6.53125 -30 C 6.070312 -30.351562 5.75 -30.664062 5.5625 -30.9375 C 5.382812 -31.21875 5.367188 -31.582031 5.515625 -32.03125 C 5.785156 -33.070312 7.210938 -33.988281 9.796875 -34.78125 C 12.378906 -35.582031 15.078125 -35.984375 17.890625 -35.984375 Z M 22.4375 -51.015625 C 24.207031 -51.015625 25.679688 -50.4375 26.859375 -49.28125 C 28.046875 -48.125 28.640625 -46.707031 28.640625 -45.03125 C 28.640625 -43.851562 28.332031 -42.695312 27.71875 -41.5625 C 27.101562 -40.425781 26.238281 -39.503906 25.125 -38.796875 C 24.019531 -38.097656 22.785156 -37.75 21.421875 -37.75 C 19.703125 -37.75 18.265625 -38.328125 17.109375 -39.484375 C 15.953125 -40.640625 15.347656 -42.078125 15.296875 -43.796875 C 15.296875 -44.929688 15.59375 -46.050781 16.1875 -47.15625 C 16.78125 -48.269531 17.617188 -49.191406 18.703125 -49.921875 C 19.785156 -50.648438 21.03125 -51.015625 22.4375 -51.015625 Z M 22.4375 -51.015625 "/></g></g><g style="fill:#ffffff;fill-opacity:1;"><g transform="translate(110.196076, 75.388472)"><path style="stroke:none" d="M 24.6875 -36.328125 C 27.457031 -36.328125 29.882812 -35.925781 31.96875 -35.125 C 34.050781 -34.332031 35.671875 -33.242188 36.828125 -31.859375 C 37.984375 -30.484375 38.5625 -28.957031 38.5625 -27.28125 C 38.5625 -25.457031 37.9375 -23.957031 36.6875 -22.78125 C 35.445312 -21.601562 33.757812 -21.015625 31.625 -21.015625 C 29.445312 -21.015625 27.742188 -21.566406 26.515625 -22.671875 C 25.296875 -23.785156 24.6875 -25.296875 24.6875 -27.203125 C 24.6875 -28.109375 24.820312 -29.0625 25.09375 -30.0625 C 23.1875 -29.5625 21.492188 -28.570312 20.015625 -27.09375 C 18.546875 -25.625 17.566406 -23.6875 17.078125 -21.28125 C 16.796875 -19.925781 16.65625 -18.703125 16.65625 -17.609375 C 16.65625 -15.160156 17.335938 -13.300781 18.703125 -12.03125 C 20.066406 -10.769531 22.015625 -10.140625 24.546875 -10.140625 C 26.003906 -10.140625 27.253906 -10.285156 28.296875 -10.578125 C 29.335938 -10.867188 30.398438 -11.265625 31.484375 -11.765625 C 32.390625 -12.222656 33.050781 -12.453125 33.46875 -12.453125 C 33.738281 -12.453125 33.914062 -12.394531 34 -12.28125 C 34.09375 -12.164062 34.140625 -11.925781 34.140625 -11.5625 C 34.191406 -9.882812 33.5 -8.125 32.0625 -6.28125 C 30.632812 -4.445312 28.660156 -2.90625 26.140625 -1.65625 C 23.628906 -0.414062 20.8125 0.203125 17.6875 0.203125 C 14.414062 0.203125 11.519531 -0.394531 9 -1.59375 C 6.488281 -2.800781 4.539062 -4.523438 3.15625 -6.765625 C 1.78125 -9.015625 1.09375 -11.632812 1.09375 -14.625 C 1.09375 -16.03125 1.269531 -17.59375 1.625 -19.3125 C 2.851562 -24.9375 5.5625 -29.175781 9.75 -32.03125 C 13.945312 -34.894531 18.925781 -36.328125 24.6875 -36.328125 Z M 24.6875 -36.328125 "/></g></g><g style="fill:#ffffff;fill-opacity:1;"><g transform="translate(147.0604, 75.388472)"><path style="stroke:none" d="M 40.328125 -35.984375 C 42.910156 -35.984375 44.984375 -35.265625 46.546875 -33.828125 C 48.117188 -32.398438 48.90625 -30.671875 48.90625 -28.640625 C 48.90625 -26.460938 48.242188 -24.757812 46.921875 -23.53125 C 45.609375 -22.3125 43.890625 -21.703125 41.765625 -21.703125 C 39.859375 -21.703125 38.382812 -22.1875 37.34375 -23.15625 C 36.300781 -24.132812 35.800781 -25.234375 35.84375 -26.453125 C 35.382812 -26.546875 35 -26.363281 34.6875 -25.90625 C 34.375 -25.457031 34.035156 -24.578125 33.671875 -23.265625 C 33.441406 -22.398438 33.007812 -21.601562 32.375 -20.875 C 35.457031 -20.65625 37.742188 -19.953125 39.234375 -18.765625 C 40.734375 -17.585938 41.484375 -16.070312 41.484375 -14.21875 C 41.484375 -13.3125 41.328125 -12.40625 41.015625 -11.5 L 40.46875 -9.390625 C 40.375 -9.160156 40.328125 -8.863281 40.328125 -8.5 C 40.328125 -7.863281 40.625 -7.546875 41.21875 -7.546875 C 41.757812 -7.546875 42.222656 -7.785156 42.609375 -8.265625 C 42.992188 -8.742188 43.253906 -8.984375 43.390625 -8.984375 C 43.617188 -8.984375 43.800781 -8.832031 43.9375 -8.53125 C 44.070312 -8.238281 44.140625 -7.890625 44.140625 -7.484375 C 44.179688 -6.171875 43.78125 -4.890625 42.9375 -3.640625 C 42.101562 -2.390625 40.835938 -1.367188 39.140625 -0.578125 C 37.441406 0.210938 35.390625 0.609375 32.984375 0.609375 C 30.085938 0.609375 27.675781 -0.113281 25.75 -1.5625 C 23.820312 -3.007812 22.859375 -4.914062 22.859375 -7.28125 C 22.859375 -8.132812 23.035156 -9.109375 23.390625 -10.203125 L 24.6875 -13.609375 C 24.914062 -14.421875 25.03125 -15.007812 25.03125 -15.375 C 25.03125 -15.957031 24.835938 -16.382812 24.453125 -16.65625 C 24.066406 -16.9375 23.46875 -17.078125 22.65625 -17.078125 L 21.28125 -17.078125 L 18.234375 -7.078125 C 18.097656 -6.523438 18.03125 -6.046875 18.03125 -5.640625 C 18.03125 -5.054688 18.140625 -4.59375 18.359375 -4.25 C 18.585938 -3.90625 18.90625 -3.578125 19.3125 -3.265625 C 19.632812 -2.941406 19.863281 -2.675781 20 -2.46875 C 20.132812 -2.269531 20.15625 -2.015625 20.0625 -1.703125 C 19.832031 -1.109375 19.378906 -0.675781 18.703125 -0.40625 C 18.023438 -0.132812 16.984375 0 15.578125 0 L 0.0625 0 C -1.113281 0 -1.972656 -0.191406 -2.515625 -0.578125 C -3.054688 -0.960938 -3.238281 -1.472656 -3.0625 -2.109375 C -2.875 -2.648438 -2.394531 -3.125 -1.625 -3.53125 C -0.945312 -3.894531 -0.382812 -4.328125 0.0625 -4.828125 C 0.519531 -5.328125 0.90625 -6.117188 1.21875 -7.203125 L 11.5625 -41.15625 C 11.695312 -41.5625 11.765625 -41.898438 11.765625 -42.171875 C 11.765625 -42.671875 11.640625 -43.078125 11.390625 -43.390625 C 11.140625 -43.710938 10.8125 -44.03125 10.40625 -44.34375 C 9.945312 -44.707031 9.613281 -45.023438 9.40625 -45.296875 C 9.207031 -45.566406 9.175781 -45.929688 9.3125 -46.390625 C 9.582031 -47.429688 11.007812 -48.335938 13.59375 -49.109375 C 16.1875 -49.878906 18.890625 -50.265625 21.703125 -50.265625 C 24.328125 -50.265625 26.25 -49.773438 27.46875 -48.796875 C 28.695312 -47.828125 29.3125 -46.476562 29.3125 -44.75 C 29.3125 -43.707031 29.15625 -42.710938 28.84375 -41.765625 L 22.921875 -22.4375 L 25.171875 -22.4375 C 26.078125 -22.4375 26.8125 -22.707031 27.375 -23.25 C 27.9375 -23.800781 28.378906 -24.597656 28.703125 -25.640625 C 29.835938 -28.992188 31.3125 -31.554688 33.125 -33.328125 C 34.9375 -35.097656 37.335938 -35.984375 40.328125 -35.984375 Z M 40.328125 -35.984375 "/></g></g><g style="fill:#ffffff;fill-opacity:1;"><g transform="translate(194.603127, 75.388472)"><path style="stroke:none" d="M 23.0625 -36.328125 C 28.8125 -36.328125 32.976562 -35.40625 35.5625 -33.5625 C 38.15625 -31.726562 39.453125 -29.382812 39.453125 -26.53125 C 39.453125 -25.664062 39.359375 -24.867188 39.171875 -24.140625 C 38.492188 -21.148438 36.601562 -19.007812 33.5 -17.71875 C 30.394531 -16.425781 26.734375 -15.78125 22.515625 -15.78125 C 20.378906 -15.78125 18.382812 -15.914062 16.53125 -16.1875 C 16.476562 -13.832031 17.109375 -12.175781 18.421875 -11.21875 C 19.742188 -10.269531 21.582031 -9.796875 23.9375 -9.796875 C 25.03125 -9.796875 26.070312 -9.921875 27.0625 -10.171875 C 28.0625 -10.421875 29.332031 -10.796875 30.875 -11.296875 C 32.144531 -11.742188 33.007812 -11.96875 33.46875 -11.96875 C 33.96875 -11.96875 34.21875 -11.675781 34.21875 -11.09375 C 34.257812 -9.5 33.664062 -7.828125 32.4375 -6.078125 C 31.21875 -4.335938 29.40625 -2.851562 27 -1.625 C 24.59375 -0.40625 21.691406 0.203125 18.296875 0.203125 C 13.265625 0.203125 9.140625 -1.0625 5.921875 -3.59375 C 2.703125 -6.132812 1.09375 -9.832031 1.09375 -14.6875 C 1.09375 -16.050781 1.269531 -17.640625 1.625 -19.453125 C 2.757812 -25.023438 5.242188 -29.226562 9.078125 -32.0625 C 12.910156 -34.90625 17.570312 -36.328125 23.0625 -36.328125 Z M 17 -20.265625 C 17.1875 -20.222656 17.4375 -20.203125 17.75 -20.203125 C 19.65625 -20.203125 21.101562 -21.082031 22.09375 -22.84375 C 23.09375 -24.613281 23.570312 -26.585938 23.53125 -28.765625 C 23.488281 -30.035156 23.125 -30.671875 22.4375 -30.671875 C 21.945312 -30.671875 21.359375 -30.273438 20.671875 -29.484375 C 19.992188 -28.691406 19.328125 -27.5 18.671875 -25.90625 C 18.015625 -24.320312 17.457031 -22.441406 17 -20.265625 Z M 17 -20.265625 "/></g></g><g style="fill:#ffffff;fill-opacity:1;"><g transform="translate(234.052114, 75.388472)"><path style="stroke:none" d="M 36.046875 -35.984375 C 38.046875 -35.984375 39.644531 -35.175781 40.84375 -33.5625 C 42.039062 -31.957031 42.640625 -29.769531 42.640625 -27 C 42.640625 -24.59375 42.210938 -22.007812 41.359375 -19.25 C 39.679688 -13.664062 36.992188 -8.40625 33.296875 -3.46875 C 29.597656 1.46875 25.359375 5.429688 20.578125 8.421875 C 15.796875 11.421875 11.019531 12.921875 6.25 12.921875 C 3.894531 12.921875 1.867188 12.507812 0.171875 11.6875 C -1.523438 10.875 -2.816406 9.785156 -3.703125 8.421875 C -4.585938 7.066406 -5.03125 5.617188 -5.03125 4.078125 C -5.03125 3.398438 -4.914062 2.65625 -4.6875 1.84375 C -4.28125 0.570312 -3.597656 -0.398438 -2.640625 -1.078125 C -1.691406 -1.765625 -0.5625 -2.109375 0.75 -2.109375 C 2.832031 -2.109375 4.539062 -1.394531 5.875 0.03125 C 7.21875 1.457031 8.070312 3.421875 8.4375 5.921875 C 11.332031 5.785156 14.003906 4.535156 16.453125 2.171875 C 14.140625 1.765625 12.425781 0.984375 11.3125 -0.171875 C 10.207031 -1.328125 9.453125 -3.128906 9.046875 -5.578125 L 6.328125 -22.234375 C 6.191406 -23.097656 6 -23.695312 5.75 -24.03125 C 5.5 -24.375 5.171875 -24.546875 4.765625 -24.546875 C 4.441406 -24.546875 4.066406 -24.382812 3.640625 -24.0625 C 3.210938 -23.75 2.90625 -23.59375 2.71875 -23.59375 C 2.351562 -23.59375 2.171875 -23.976562 2.171875 -24.75 C 2.171875 -25.382812 2.285156 -26.066406 2.515625 -26.796875 C 3.328125 -29.378906 4.84375 -31.566406 7.0625 -33.359375 C 9.289062 -35.148438 11.878906 -36.046875 14.828125 -36.046875 C 17.734375 -36.046875 19.875 -35.179688 21.25 -33.453125 C 22.632812 -31.734375 23.53125 -29.082031 23.9375 -25.5 L 25.984375 -10.546875 C 26.117188 -9.410156 26.523438 -8.84375 27.203125 -8.84375 C 28.023438 -8.84375 28.976562 -9.578125 30.0625 -11.046875 C 31.144531 -12.523438 32.210938 -14.625 33.265625 -17.34375 C 31.898438 -18.570312 30.851562 -19.976562 30.125 -21.5625 C 29.40625 -23.144531 29.046875 -24.84375 29.046875 -26.65625 C 29.046875 -28.0625 29.226562 -29.332031 29.59375 -30.46875 C 30.132812 -32.28125 30.984375 -33.648438 32.140625 -34.578125 C 33.296875 -35.515625 34.597656 -35.984375 36.046875 -35.984375 Z M 36.046875 -35.984375 "/></g></g><g style="fill:#ffffff;fill-opacity:1;"><g transform="translate(276.221643, 75.388472)"><path style="stroke:none" d="M 8.09375 -13.734375 C 9.90625 -13.734375 11.4375 -13.117188 12.6875 -11.890625 C 13.9375 -10.671875 14.5625 -9.175781 14.5625 -7.40625 C 14.5625 -6.1875 14.226562 -4.988281 13.5625 -3.8125 C 12.90625 -2.632812 12 -1.671875 10.84375 -0.921875 C 9.6875 -0.171875 8.382812 0.203125 6.9375 0.203125 C 5.164062 0.203125 3.664062 -0.40625 2.4375 -1.625 C 1.21875 -2.851562 0.585938 -4.351562 0.546875 -6.125 C 0.546875 -7.34375 0.863281 -8.539062 1.5 -9.71875 C 2.132812 -10.90625 3.03125 -11.867188 4.1875 -12.609375 C 5.34375 -13.359375 6.644531 -13.734375 8.09375 -13.734375 Z M 8.09375 -13.734375 "/></g></g><g style="fill:#ffffff;fill-opacity:1;"><g transform="translate(296.422201, 75.388472)"><path style="stroke:none" d="M 24.28125 -35.984375 C 29.5 -35.984375 33.671875 -35.019531 36.796875 -33.09375 C 39.921875 -31.164062 41.484375 -28.226562 41.484375 -24.28125 C 41.484375 -22.78125 41.210938 -21.082031 40.671875 -19.1875 L 37.890625 -9.796875 C 37.835938 -9.609375 37.8125 -9.378906 37.8125 -9.109375 C 37.8125 -8.390625 38.109375 -8.03125 38.703125 -8.03125 C 39.242188 -8.03125 39.707031 -8.265625 40.09375 -8.734375 C 40.476562 -9.210938 40.738281 -9.453125 40.875 -9.453125 C 41.101562 -9.453125 41.296875 -9.289062 41.453125 -8.96875 C 41.609375 -8.65625 41.6875 -8.296875 41.6875 -7.890625 C 41.738281 -6.660156 41.273438 -5.410156 40.296875 -4.140625 C 39.328125 -2.878906 38.023438 -1.835938 36.390625 -1.015625 C 34.753906 -0.203125 32.960938 0.203125 31.015625 0.203125 C 28.660156 0.203125 26.640625 -0.222656 24.953125 -1.078125 C 23.273438 -1.941406 22.125 -3.210938 21.5 -4.890625 C 20.132812 -3.265625 18.519531 -2.007812 16.65625 -1.125 C 14.800781 -0.238281 12.804688 0.203125 10.671875 0.203125 C 8.273438 0.203125 6.257812 -0.257812 4.625 -1.1875 C 2.988281 -2.113281 1.773438 -3.3125 0.984375 -4.78125 C 0.191406 -6.257812 -0.203125 -7.816406 -0.203125 -9.453125 C -0.203125 -10.179688 -0.132812 -10.882812 0 -11.5625 C 0.726562 -14.6875 2.300781 -17.039062 4.71875 -18.625 C 7.144531 -20.21875 10.039062 -21.015625 13.40625 -21.015625 C 17.164062 -21.015625 20.859375 -20.425781 24.484375 -19.25 L 26.1875 -23.734375 C 26.769531 -25.640625 27.0625 -27.113281 27.0625 -28.15625 C 27.019531 -29.25 26.660156 -30.066406 25.984375 -30.609375 C 25.304688 -31.148438 24.265625 -31.421875 22.859375 -31.421875 C 23.128906 -30.691406 23.265625 -29.941406 23.265625 -29.171875 C 23.265625 -27.492188 22.628906 -26.039062 21.359375 -24.8125 C 20.085938 -23.59375 18.273438 -22.984375 15.921875 -22.984375 C 13.691406 -22.984375 11.953125 -23.46875 10.703125 -24.4375 C 9.460938 -25.414062 8.84375 -26.632812 8.84375 -28.09375 C 8.84375 -30.351562 10.109375 -32.234375 12.640625 -33.734375 C 15.179688 -35.234375 19.0625 -35.984375 24.28125 -35.984375 Z M 20.46875 -15.375 C 19.195312 -15.375 18.164062 -14.882812 17.375 -13.90625 C 16.582031 -12.9375 16.1875 -11.882812 16.1875 -10.75 C 16.1875 -10.019531 16.351562 -9.425781 16.6875 -8.96875 C 17.03125 -8.519531 17.519531 -8.296875 18.15625 -8.296875 C 18.75 -8.296875 19.394531 -8.53125 20.09375 -9 C 20.800781 -9.476562 21.3125 -10.195312 21.625 -11.15625 L 23.0625 -15.171875 C 22.289062 -15.304688 21.425781 -15.375 20.46875 -15.375 Z M 20.46875 -15.375 "/></g></g><g style="fill:#ffffff;fill-opacity:1;"><g transform="translate(340.904215, 75.388472)"><path style="stroke:none" d="M 17.890625 -35.984375 C 20.515625 -35.984375 22.4375 -35.484375 23.65625 -34.484375 C 24.882812 -33.484375 25.5 -32.125 25.5 -30.40625 C 25.5 -29.363281 25.34375 -28.363281 25.03125 -27.40625 L 18.765625 -7.078125 C 18.628906 -6.523438 18.5625 -6.046875 18.5625 -5.640625 C 18.5625 -5.054688 18.675781 -4.59375 18.90625 -4.25 C 19.132812 -3.90625 19.453125 -3.578125 19.859375 -3.265625 C 20.171875 -2.941406 20.394531 -2.675781 20.53125 -2.46875 C 20.675781 -2.269531 20.703125 -2.015625 20.609375 -1.703125 C 20.378906 -1.109375 19.925781 -0.675781 19.25 -0.40625 C 18.570312 -0.132812 17.53125 0 16.125 0 L 0.609375 0 C -0.566406 0 -1.425781 -0.191406 -1.96875 -0.578125 C -2.519531 -0.960938 -2.703125 -1.472656 -2.515625 -2.109375 C -2.335938 -2.648438 -1.863281 -3.125 -1.09375 -3.53125 C -0.40625 -3.894531 0.160156 -4.328125 0.609375 -4.828125 C 1.066406 -5.328125 1.453125 -6.117188 1.765625 -7.203125 L 7.6875 -26.859375 C 7.820312 -27.273438 7.890625 -27.617188 7.890625 -27.890625 C 7.890625 -28.390625 7.773438 -28.785156 7.546875 -29.078125 C 7.316406 -29.367188 6.976562 -29.675781 6.53125 -30 C 6.070312 -30.351562 5.75 -30.664062 5.5625 -30.9375 C 5.382812 -31.21875 5.367188 -31.582031 5.515625 -32.03125 C 5.785156 -33.070312 7.210938 -33.988281 9.796875 -34.78125 C 12.378906 -35.582031 15.078125 -35.984375 17.890625 -35.984375 Z M 22.4375 -51.015625 C 24.207031 -51.015625 25.679688 -50.4375 26.859375 -49.28125 C 28.046875 -48.125 28.640625 -46.707031 28.640625 -45.03125 C 28.640625 -43.851562 28.332031 -42.695312 27.71875 -41.5625 C 27.101562 -40.425781 26.238281 -39.503906 25.125 -38.796875 C 24.019531 -38.097656 22.785156 -37.75 21.421875 -37.75 C 19.703125 -37.75 18.265625 -38.328125 17.109375 -39.484375 C 15.953125 -40.640625 15.347656 -42.078125 15.296875 -43.796875 C 15.296875 -44.929688 15.59375 -46.050781 16.1875 -47.15625 C 16.78125 -48.269531 17.617188 -49.191406 18.703125 -49.921875 C 19.785156 -50.648438 21.03125 -51.015625 22.4375 -51.015625 Z M 22.4375 -51.015625 "/></g></g><g style="fill:#ffffff;fill-opacity:1;"><g transform="translate(365.802991, 75.388472)"><path style="stroke:none" d=""/></g></g></g></svg>