<svg xmlns="http://www.w3.org/2000/svg" xmlns:xlink="http://www.w3.org/1999/xlink" width="500" zoomAndPan="magnify" viewBox="0 0 375 374.999991" height="500" preserveAspectRatio="xMidYMid meet" version="1.0"><defs><g/><clipPath id="4a79308b87"><path d="M 0.886719 0.886719 L 375 0.886719 L 375 375 L 0.886719 375 Z M 0.886719 0.886719 " clip-rule="nonzero"/></clipPath><clipPath id="e3c3db0e1d"><path d="M 187.941406 0.886719 C 84.632812 0.886719 0.886719 84.632812 0.886719 187.941406 C 0.886719 291.25 84.632812 375 187.941406 375 C 291.25 375 375 291.25 375 187.941406 C 375 84.632812 291.25 0.886719 187.941406 0.886719 Z M 187.941406 0.886719 " clip-rule="nonzero"/></clipPath><clipPath id="acc011202a"><path d="M 160.90625 0.00390625 L 214.085938 0.00390625 L 214.085938 65.945312 L 160.90625 65.945312 Z M 160.90625 0.00390625 " clip-rule="nonzero"/></clipPath><clipPath id="a08a1472e9"><path d="M 25.988281 171.257812 L 149.183594 171.257812 L 149.183594 193.605469 L 25.988281 193.605469 Z M 25.988281 171.257812 " clip-rule="nonzero"/></clipPath><clipPath id="cbf28e385e"><path d="M 160.90625 309.066406 L 214.085938 309.066406 L 214.085938 375 L 160.90625 375 Z M 160.90625 309.066406 " clip-rule="nonzero"/></clipPath><clipPath id="8230fc7fbd"><path d="M 25.988281 202.011719 L 149.183594 202.011719 L 149.183594 224.359375 L 25.988281 224.359375 Z M 25.988281 202.011719 " clip-rule="nonzero"/></clipPath></defs><rect x="-37.5" width="450" fill="#ffffff" y="-37.499999" height="449.999989" fill-opacity="1"/><g clip-path="url(#4a79308b87)"><g clip-path="url(#e3c3db0e1d)"><path fill="#00bf63" d="M 0.886719 0.886719 L 375 0.886719 L 375 375 L 0.886719 375 Z M 0.886719 0.886719 " fill-opacity="1" fill-rule="nonzero"/></g></g><g fill="#ffffff" fill-opacity="1"><g transform="translate(31.683053, 319.163756)"><g><path d="M 151.453125 -148.03125 L 296.8125 -148.03125 L 296.8125 -132.09375 C 296.8125 -106.28125 291.054688 -82.9375 279.546875 -62.0625 C 268.035156 -41.1875 251.710938 -24.800781 230.578125 -12.90625 C 209.453125 -1.007812 184.847656 4.9375 156.765625 4.9375 C 131.453125 4.9375 107.976562 -0.753906 86.34375 -12.140625 C 64.707031 -23.523438 47.4375 -39.71875 34.53125 -60.71875 C 21.632812 -81.726562 15.1875 -105.769531 15.1875 -132.84375 C 15.1875 -159.914062 21.632812 -183.953125 34.53125 -204.953125 C 47.4375 -225.960938 64.707031 -242.160156 86.34375 -253.546875 C 107.976562 -264.929688 131.453125 -270.625 156.765625 -270.625 C 189.660156 -270.625 218.503906 -262.144531 243.296875 -245.1875 C 268.097656 -228.238281 285.179688 -204.707031 294.546875 -174.59375 L 223.9375 -174.59375 C 208.5 -199.144531 186.359375 -211.421875 157.515625 -211.421875 C 143.097656 -211.421875 130.191406 -207.941406 118.796875 -200.984375 C 107.410156 -194.023438 98.554688 -184.535156 92.234375 -172.515625 C 85.910156 -160.492188 82.75 -147.019531 82.75 -132.09375 C 82.75 -116.90625 85.910156 -103.363281 92.234375 -91.46875 C 98.554688 -79.582031 107.472656 -70.222656 118.984375 -63.390625 C 130.503906 -56.554688 143.726562 -53.140625 158.65625 -53.140625 C 175.613281 -53.140625 190.097656 -56.929688 202.109375 -64.515625 C 214.128906 -72.109375 222.796875 -82.488281 228.109375 -95.65625 L 151.453125 -95.65625 Z M 151.453125 -148.03125 "/></g></g></g><g clip-path="url(#acc011202a)"><path fill="#ffffff" d="M 214.085938 0.00390625 L 214.085938 65.855469 L 160.90625 65.855469 L 160.90625 0.00390625 Z M 214.085938 0.00390625 " fill-opacity="1" fill-rule="nonzero"/></g><g clip-path="url(#a08a1472e9)"><path fill="#ffffff" d="M 25.988281 171.257812 L 149.175781 171.257812 L 149.175781 193.605469 L 25.988281 193.605469 Z M 25.988281 171.257812 " fill-opacity="1" fill-rule="nonzero"/></g><g clip-path="url(#cbf28e385e)"><path fill="#ffffff" d="M 214.085938 309.066406 L 214.085938 374.917969 L 160.90625 374.917969 L 160.90625 309.066406 Z M 214.085938 309.066406 " fill-opacity="1" fill-rule="nonzero"/></g><g clip-path="url(#8230fc7fbd)"><path fill="#ffffff" d="M 25.988281 202.011719 L 149.175781 202.011719 L 149.175781 224.359375 L 25.988281 224.359375 Z M 25.988281 202.011719 " fill-opacity="1" fill-rule="nonzero"/></g></svg>